<?xml version="1.0" encoding="utf-8" standalone="no"?>
<!DOCTYPE svg PUBLIC "-//W3C//DTD SVG 1.1//EN"
  "http://www.w3.org/Graphics/SVG/1.1/DTD/svg11.dtd">
<!-- Created with matplotlib (https://matplotlib.org/) -->
<svg height="360pt" version="1.1" viewBox="0 0 471.15 360" width="471.15pt" xmlns="http://www.w3.org/2000/svg" xmlns:xlink="http://www.w3.org/1999/xlink">
 <defs>
  <style type="text/css">
*{stroke-linecap:butt;stroke-linejoin:round;}
  </style>
 </defs>
 <g id="figure_1">
  <g id="patch_1">
   <path d="M 0 360 
L 471.15 360 
L 471.15 0 
L 0 0 
z
" style="fill:#ffffff;"/>
  </g>
  <g id="axes_1">
   <g id="patch_2">
    <path d="M 97.02549 309.264 
L 355.2885 309.264 
L 355.2885 12.636 
L 97.02549 12.636 
z
" style="fill:#eaeaf2;"/>
   </g>
   <g id="matplotlib.axis_1">
    <g id="xtick_1">
     <g id="line2d_1">
      <path clip-path="url(#pb989c8fd6a)" d="M 106.002546 309.264 
L 106.002546 12.636 
" style="fill:none;stroke:#ffffff;stroke-linecap:round;stroke-width:1.5;"/>
     </g>
     <g id="text_1">
      <!-- 0 -->
      <defs>
       <path d="M 31.78125 66.40625 
Q 24.171875 66.40625 20.328125 58.90625 
Q 16.5 51.421875 16.5 36.375 
Q 16.5 21.390625 20.328125 13.890625 
Q 24.171875 6.390625 31.78125 6.390625 
Q 39.453125 6.390625 43.28125 13.890625 
Q 47.125 21.390625 47.125 36.375 
Q 47.125 51.421875 43.28125 58.90625 
Q 39.453125 66.40625 31.78125 66.40625 
z
M 31.78125 74.21875 
Q 44.046875 74.21875 50.515625 64.515625 
Q 56.984375 54.828125 56.984375 36.375 
Q 56.984375 17.96875 50.515625 8.265625 
Q 44.046875 -1.421875 31.78125 -1.421875 
Q 19.53125 -1.421875 13.0625 8.265625 
Q 6.59375 17.96875 6.59375 36.375 
Q 6.59375 54.828125 13.0625 64.515625 
Q 19.53125 74.21875 31.78125 74.21875 
z
" id="DejaVuSans-48"/>
      </defs>
      <g style="fill:#262626;" transform="translate(102.590656 329.913324)scale(0.10725 -0.10725)">
       <use xlink:href="#DejaVuSans-48"/>
      </g>
     </g>
    </g>
    <g id="xtick_2">
     <g id="line2d_2">
      <path clip-path="url(#pb989c8fd6a)" d="M 161.245971 309.264 
L 161.245971 12.636 
" style="fill:none;stroke:#ffffff;stroke-linecap:round;stroke-width:1.5;"/>
     </g>
     <g id="text_2">
      <!-- 20 -->
      <defs>
       <path d="M 19.1875 8.296875 
L 53.609375 8.296875 
L 53.609375 0 
L 7.328125 0 
L 7.328125 8.296875 
Q 12.9375 14.109375 22.625 23.890625 
Q 32.328125 33.6875 34.8125 36.53125 
Q 39.546875 41.84375 41.421875 45.53125 
Q 43.3125 49.21875 43.3125 52.78125 
Q 43.3125 58.59375 39.234375 62.25 
Q 35.15625 65.921875 28.609375 65.921875 
Q 23.96875 65.921875 18.8125 64.3125 
Q 13.671875 62.703125 7.8125 59.421875 
L 7.8125 69.390625 
Q 13.765625 71.78125 18.9375 73 
Q 24.125 74.21875 28.421875 74.21875 
Q 39.75 74.21875 46.484375 68.546875 
Q 53.21875 62.890625 53.21875 53.421875 
Q 53.21875 48.921875 51.53125 44.890625 
Q 49.859375 40.875 45.40625 35.40625 
Q 44.1875 33.984375 37.640625 27.21875 
Q 31.109375 20.453125 19.1875 8.296875 
z
" id="DejaVuSans-50"/>
      </defs>
      <g style="fill:#262626;" transform="translate(154.42219 329.913324)scale(0.10725 -0.10725)">
       <use xlink:href="#DejaVuSans-50"/>
       <use x="63.623047" xlink:href="#DejaVuSans-48"/>
      </g>
     </g>
    </g>
    <g id="xtick_3">
     <g id="line2d_3">
      <path clip-path="url(#pb989c8fd6a)" d="M 216.489396 309.264 
L 216.489396 12.636 
" style="fill:none;stroke:#ffffff;stroke-linecap:round;stroke-width:1.5;"/>
     </g>
     <g id="text_3">
      <!-- 40 -->
      <defs>
       <path d="M 37.796875 64.3125 
L 12.890625 25.390625 
L 37.796875 25.390625 
z
M 35.203125 72.90625 
L 47.609375 72.90625 
L 47.609375 25.390625 
L 58.015625 25.390625 
L 58.015625 17.1875 
L 47.609375 17.1875 
L 47.609375 0 
L 37.796875 0 
L 37.796875 17.1875 
L 4.890625 17.1875 
L 4.890625 26.703125 
z
" id="DejaVuSans-52"/>
      </defs>
      <g style="fill:#262626;" transform="translate(209.665614 329.913324)scale(0.10725 -0.10725)">
       <use xlink:href="#DejaVuSans-52"/>
       <use x="63.623047" xlink:href="#DejaVuSans-48"/>
      </g>
     </g>
    </g>
    <g id="xtick_4">
     <g id="line2d_4">
      <path clip-path="url(#pb989c8fd6a)" d="M 271.73282 309.264 
L 271.73282 12.636 
" style="fill:none;stroke:#ffffff;stroke-linecap:round;stroke-width:1.5;"/>
     </g>
     <g id="text_4">
      <!-- 60 -->
      <defs>
       <path d="M 33.015625 40.375 
Q 26.375 40.375 22.484375 35.828125 
Q 18.609375 31.296875 18.609375 23.390625 
Q 18.609375 15.53125 22.484375 10.953125 
Q 26.375 6.390625 33.015625 6.390625 
Q 39.65625 6.390625 43.53125 10.953125 
Q 47.40625 15.53125 47.40625 23.390625 
Q 47.40625 31.296875 43.53125 35.828125 
Q 39.65625 40.375 33.015625 40.375 
z
M 52.59375 71.296875 
L 52.59375 62.3125 
Q 48.875 64.0625 45.09375 64.984375 
Q 41.3125 65.921875 37.59375 65.921875 
Q 27.828125 65.921875 22.671875 59.328125 
Q 17.53125 52.734375 16.796875 39.40625 
Q 19.671875 43.65625 24.015625 45.921875 
Q 28.375 48.1875 33.59375 48.1875 
Q 44.578125 48.1875 50.953125 41.515625 
Q 57.328125 34.859375 57.328125 23.390625 
Q 57.328125 12.15625 50.6875 5.359375 
Q 44.046875 -1.421875 33.015625 -1.421875 
Q 20.359375 -1.421875 13.671875 8.265625 
Q 6.984375 17.96875 6.984375 36.375 
Q 6.984375 53.65625 15.1875 63.9375 
Q 23.390625 74.21875 37.203125 74.21875 
Q 40.921875 74.21875 44.703125 73.484375 
Q 48.484375 72.75 52.59375 71.296875 
z
" id="DejaVuSans-54"/>
      </defs>
      <g style="fill:#262626;" transform="translate(264.909039 329.913324)scale(0.10725 -0.10725)">
       <use xlink:href="#DejaVuSans-54"/>
       <use x="63.623047" xlink:href="#DejaVuSans-48"/>
      </g>
     </g>
    </g>
    <g id="xtick_5">
     <g id="line2d_5">
      <path clip-path="url(#pb989c8fd6a)" d="M 326.976245 309.264 
L 326.976245 12.636 
" style="fill:none;stroke:#ffffff;stroke-linecap:round;stroke-width:1.5;"/>
     </g>
     <g id="text_5">
      <!-- 80 -->
      <defs>
       <path d="M 31.78125 34.625 
Q 24.75 34.625 20.71875 30.859375 
Q 16.703125 27.09375 16.703125 20.515625 
Q 16.703125 13.921875 20.71875 10.15625 
Q 24.75 6.390625 31.78125 6.390625 
Q 38.8125 6.390625 42.859375 10.171875 
Q 46.921875 13.96875 46.921875 20.515625 
Q 46.921875 27.09375 42.890625 30.859375 
Q 38.875 34.625 31.78125 34.625 
z
M 21.921875 38.8125 
Q 15.578125 40.375 12.03125 44.71875 
Q 8.5 49.078125 8.5 55.328125 
Q 8.5 64.0625 14.71875 69.140625 
Q 20.953125 74.21875 31.78125 74.21875 
Q 42.671875 74.21875 48.875 69.140625 
Q 55.078125 64.0625 55.078125 55.328125 
Q 55.078125 49.078125 51.53125 44.71875 
Q 48 40.375 41.703125 38.8125 
Q 48.828125 37.15625 52.796875 32.3125 
Q 56.78125 27.484375 56.78125 20.515625 
Q 56.78125 9.90625 50.3125 4.234375 
Q 43.84375 -1.421875 31.78125 -1.421875 
Q 19.734375 -1.421875 13.25 4.234375 
Q 6.78125 9.90625 6.78125 20.515625 
Q 6.78125 27.484375 10.78125 32.3125 
Q 14.796875 37.15625 21.921875 38.8125 
z
M 18.3125 54.390625 
Q 18.3125 48.734375 21.84375 45.5625 
Q 25.390625 42.390625 31.78125 42.390625 
Q 38.140625 42.390625 41.71875 45.5625 
Q 45.3125 48.734375 45.3125 54.390625 
Q 45.3125 60.0625 41.71875 63.234375 
Q 38.140625 66.40625 31.78125 66.40625 
Q 25.390625 66.40625 21.84375 63.234375 
Q 18.3125 60.0625 18.3125 54.390625 
z
" id="DejaVuSans-56"/>
      </defs>
      <g style="fill:#262626;" transform="translate(320.152464 329.913324)scale(0.10725 -0.10725)">
       <use xlink:href="#DejaVuSans-56"/>
       <use x="63.623047" xlink:href="#DejaVuSans-48"/>
      </g>
     </g>
    </g>
    <g id="text_6">
     <!-- iteration -->
     <defs>
      <path d="M 9.421875 54.6875 
L 18.40625 54.6875 
L 18.40625 0 
L 9.421875 0 
z
M 9.421875 75.984375 
L 18.40625 75.984375 
L 18.40625 64.59375 
L 9.421875 64.59375 
z
" id="DejaVuSans-105"/>
      <path d="M 18.3125 70.21875 
L 18.3125 54.6875 
L 36.8125 54.6875 
L 36.8125 47.703125 
L 18.3125 47.703125 
L 18.3125 18.015625 
Q 18.3125 11.328125 20.140625 9.421875 
Q 21.96875 7.515625 27.59375 7.515625 
L 36.8125 7.515625 
L 36.8125 0 
L 27.59375 0 
Q 17.1875 0 13.234375 3.875 
Q 9.28125 7.765625 9.28125 18.015625 
L 9.28125 47.703125 
L 2.6875 47.703125 
L 2.6875 54.6875 
L 9.28125 54.6875 
L 9.28125 70.21875 
z
" id="DejaVuSans-116"/>
      <path d="M 56.203125 29.59375 
L 56.203125 25.203125 
L 14.890625 25.203125 
Q 15.484375 15.921875 20.484375 11.0625 
Q 25.484375 6.203125 34.421875 6.203125 
Q 39.59375 6.203125 44.453125 7.46875 
Q 49.3125 8.734375 54.109375 11.28125 
L 54.109375 2.78125 
Q 49.265625 0.734375 44.1875 -0.34375 
Q 39.109375 -1.421875 33.890625 -1.421875 
Q 20.796875 -1.421875 13.15625 6.1875 
Q 5.515625 13.8125 5.515625 26.8125 
Q 5.515625 40.234375 12.765625 48.109375 
Q 20.015625 56 32.328125 56 
Q 43.359375 56 49.78125 48.890625 
Q 56.203125 41.796875 56.203125 29.59375 
z
M 47.21875 32.234375 
Q 47.125 39.59375 43.09375 43.984375 
Q 39.0625 48.390625 32.421875 48.390625 
Q 24.90625 48.390625 20.390625 44.140625 
Q 15.875 39.890625 15.1875 32.171875 
z
" id="DejaVuSans-101"/>
      <path d="M 41.109375 46.296875 
Q 39.59375 47.171875 37.8125 47.578125 
Q 36.03125 48 33.890625 48 
Q 26.265625 48 22.1875 43.046875 
Q 18.109375 38.09375 18.109375 28.8125 
L 18.109375 0 
L 9.078125 0 
L 9.078125 54.6875 
L 18.109375 54.6875 
L 18.109375 46.1875 
Q 20.953125 51.171875 25.484375 53.578125 
Q 30.03125 56 36.53125 56 
Q 37.453125 56 38.578125 55.875 
Q 39.703125 55.765625 41.0625 55.515625 
z
" id="DejaVuSans-114"/>
      <path d="M 34.28125 27.484375 
Q 23.390625 27.484375 19.1875 25 
Q 14.984375 22.515625 14.984375 16.5 
Q 14.984375 11.71875 18.140625 8.90625 
Q 21.296875 6.109375 26.703125 6.109375 
Q 34.1875 6.109375 38.703125 11.40625 
Q 43.21875 16.703125 43.21875 25.484375 
L 43.21875 27.484375 
z
M 52.203125 31.203125 
L 52.203125 0 
L 43.21875 0 
L 43.21875 8.296875 
Q 40.140625 3.328125 35.546875 0.953125 
Q 30.953125 -1.421875 24.3125 -1.421875 
Q 15.921875 -1.421875 10.953125 3.296875 
Q 6 8.015625 6 15.921875 
Q 6 25.140625 12.171875 29.828125 
Q 18.359375 34.515625 30.609375 34.515625 
L 43.21875 34.515625 
L 43.21875 35.40625 
Q 43.21875 41.609375 39.140625 45 
Q 35.0625 48.390625 27.6875 48.390625 
Q 23 48.390625 18.546875 47.265625 
Q 14.109375 46.140625 10.015625 43.890625 
L 10.015625 52.203125 
Q 14.9375 54.109375 19.578125 55.046875 
Q 24.21875 56 28.609375 56 
Q 40.484375 56 46.34375 49.84375 
Q 52.203125 43.703125 52.203125 31.203125 
z
" id="DejaVuSans-97"/>
      <path d="M 30.609375 48.390625 
Q 23.390625 48.390625 19.1875 42.75 
Q 14.984375 37.109375 14.984375 27.296875 
Q 14.984375 17.484375 19.15625 11.84375 
Q 23.34375 6.203125 30.609375 6.203125 
Q 37.796875 6.203125 41.984375 11.859375 
Q 46.1875 17.53125 46.1875 27.296875 
Q 46.1875 37.015625 41.984375 42.703125 
Q 37.796875 48.390625 30.609375 48.390625 
z
M 30.609375 56 
Q 42.328125 56 49.015625 48.375 
Q 55.71875 40.765625 55.71875 27.296875 
Q 55.71875 13.875 49.015625 6.21875 
Q 42.328125 -1.421875 30.609375 -1.421875 
Q 18.84375 -1.421875 12.171875 6.21875 
Q 5.515625 13.875 5.515625 27.296875 
Q 5.515625 40.765625 12.171875 48.375 
Q 18.84375 56 30.609375 56 
z
" id="DejaVuSans-111"/>
      <path d="M 54.890625 33.015625 
L 54.890625 0 
L 45.90625 0 
L 45.90625 32.71875 
Q 45.90625 40.484375 42.875 44.328125 
Q 39.84375 48.1875 33.796875 48.1875 
Q 26.515625 48.1875 22.3125 43.546875 
Q 18.109375 38.921875 18.109375 30.90625 
L 18.109375 0 
L 9.078125 0 
L 9.078125 54.6875 
L 18.109375 54.6875 
L 18.109375 46.1875 
Q 21.34375 51.125 25.703125 53.5625 
Q 30.078125 56 35.796875 56 
Q 45.21875 56 50.046875 50.171875 
Q 54.890625 44.34375 54.890625 33.015625 
z
" id="DejaVuSans-110"/>
     </defs>
     <g style="fill:#262626;" transform="translate(201.443487 345.033961)scale(0.117 -0.117)">
      <use xlink:href="#DejaVuSans-105"/>
      <use x="27.783203" xlink:href="#DejaVuSans-116"/>
      <use x="66.992188" xlink:href="#DejaVuSans-101"/>
      <use x="128.515625" xlink:href="#DejaVuSans-114"/>
      <use x="169.628906" xlink:href="#DejaVuSans-97"/>
      <use x="230.908203" xlink:href="#DejaVuSans-116"/>
      <use x="270.117188" xlink:href="#DejaVuSans-105"/>
      <use x="297.900391" xlink:href="#DejaVuSans-111"/>
      <use x="359.082031" xlink:href="#DejaVuSans-110"/>
     </g>
    </g>
   </g>
   <g id="matplotlib.axis_2">
    <g id="ytick_1">
     <g id="line2d_6">
      <path clip-path="url(#pb989c8fd6a)" d="M 97.02549 291.306536 
L 355.2885 291.306536 
" style="fill:none;stroke:#ffffff;stroke-linecap:round;stroke-width:1.5;"/>
     </g>
     <g id="text_7">
      <!-- 20000 -->
      <g style="fill:#262626;" transform="translate(50.406584 295.381198)scale(0.10725 -0.10725)">
       <use xlink:href="#DejaVuSans-50"/>
       <use x="63.623047" xlink:href="#DejaVuSans-48"/>
       <use x="127.246094" xlink:href="#DejaVuSans-48"/>
       <use x="190.869141" xlink:href="#DejaVuSans-48"/>
       <use x="254.492188" xlink:href="#DejaVuSans-48"/>
      </g>
     </g>
    </g>
    <g id="ytick_2">
     <g id="line2d_7">
      <path clip-path="url(#pb989c8fd6a)" d="M 97.02549 246.840858 
L 355.2885 246.840858 
" style="fill:none;stroke:#ffffff;stroke-linecap:round;stroke-width:1.5;"/>
     </g>
     <g id="text_8">
      <!-- 30000 -->
      <defs>
       <path d="M 40.578125 39.3125 
Q 47.65625 37.796875 51.625 33 
Q 55.609375 28.21875 55.609375 21.1875 
Q 55.609375 10.40625 48.1875 4.484375 
Q 40.765625 -1.421875 27.09375 -1.421875 
Q 22.515625 -1.421875 17.65625 -0.515625 
Q 12.796875 0.390625 7.625 2.203125 
L 7.625 11.71875 
Q 11.71875 9.328125 16.59375 8.109375 
Q 21.484375 6.890625 26.8125 6.890625 
Q 36.078125 6.890625 40.9375 10.546875 
Q 45.796875 14.203125 45.796875 21.1875 
Q 45.796875 27.640625 41.28125 31.265625 
Q 36.765625 34.90625 28.71875 34.90625 
L 20.21875 34.90625 
L 20.21875 43.015625 
L 29.109375 43.015625 
Q 36.375 43.015625 40.234375 45.921875 
Q 44.09375 48.828125 44.09375 54.296875 
Q 44.09375 59.90625 40.109375 62.90625 
Q 36.140625 65.921875 28.71875 65.921875 
Q 24.65625 65.921875 20.015625 65.03125 
Q 15.375 64.15625 9.8125 62.3125 
L 9.8125 71.09375 
Q 15.4375 72.65625 20.34375 73.4375 
Q 25.25 74.21875 29.59375 74.21875 
Q 40.828125 74.21875 47.359375 69.109375 
Q 53.90625 64.015625 53.90625 55.328125 
Q 53.90625 49.265625 50.4375 45.09375 
Q 46.96875 40.921875 40.578125 39.3125 
z
" id="DejaVuSans-51"/>
      </defs>
      <g style="fill:#262626;" transform="translate(50.406584 250.91552)scale(0.10725 -0.10725)">
       <use xlink:href="#DejaVuSans-51"/>
       <use x="63.623047" xlink:href="#DejaVuSans-48"/>
       <use x="127.246094" xlink:href="#DejaVuSans-48"/>
       <use x="190.869141" xlink:href="#DejaVuSans-48"/>
       <use x="254.492188" xlink:href="#DejaVuSans-48"/>
      </g>
     </g>
    </g>
    <g id="ytick_3">
     <g id="line2d_8">
      <path clip-path="url(#pb989c8fd6a)" d="M 97.02549 202.37518 
L 355.2885 202.37518 
" style="fill:none;stroke:#ffffff;stroke-linecap:round;stroke-width:1.5;"/>
     </g>
     <g id="text_9">
      <!-- 40000 -->
      <g style="fill:#262626;" transform="translate(50.406584 206.449842)scale(0.10725 -0.10725)">
       <use xlink:href="#DejaVuSans-52"/>
       <use x="63.623047" xlink:href="#DejaVuSans-48"/>
       <use x="127.246094" xlink:href="#DejaVuSans-48"/>
       <use x="190.869141" xlink:href="#DejaVuSans-48"/>
       <use x="254.492188" xlink:href="#DejaVuSans-48"/>
      </g>
     </g>
    </g>
    <g id="ytick_4">
     <g id="line2d_9">
      <path clip-path="url(#pb989c8fd6a)" d="M 97.02549 157.909502 
L 355.2885 157.909502 
" style="fill:none;stroke:#ffffff;stroke-linecap:round;stroke-width:1.5;"/>
     </g>
     <g id="text_10">
      <!-- 50000 -->
      <defs>
       <path d="M 10.796875 72.90625 
L 49.515625 72.90625 
L 49.515625 64.59375 
L 19.828125 64.59375 
L 19.828125 46.734375 
Q 21.96875 47.46875 24.109375 47.828125 
Q 26.265625 48.1875 28.421875 48.1875 
Q 40.625 48.1875 47.75 41.5 
Q 54.890625 34.8125 54.890625 23.390625 
Q 54.890625 11.625 47.5625 5.09375 
Q 40.234375 -1.421875 26.90625 -1.421875 
Q 22.3125 -1.421875 17.546875 -0.640625 
Q 12.796875 0.140625 7.71875 1.703125 
L 7.71875 11.625 
Q 12.109375 9.234375 16.796875 8.0625 
Q 21.484375 6.890625 26.703125 6.890625 
Q 35.15625 6.890625 40.078125 11.328125 
Q 45.015625 15.765625 45.015625 23.390625 
Q 45.015625 31 40.078125 35.4375 
Q 35.15625 39.890625 26.703125 39.890625 
Q 22.75 39.890625 18.8125 39.015625 
Q 14.890625 38.140625 10.796875 36.28125 
z
" id="DejaVuSans-53"/>
      </defs>
      <g style="fill:#262626;" transform="translate(50.406584 161.984164)scale(0.10725 -0.10725)">
       <use xlink:href="#DejaVuSans-53"/>
       <use x="63.623047" xlink:href="#DejaVuSans-48"/>
       <use x="127.246094" xlink:href="#DejaVuSans-48"/>
       <use x="190.869141" xlink:href="#DejaVuSans-48"/>
       <use x="254.492188" xlink:href="#DejaVuSans-48"/>
      </g>
     </g>
    </g>
    <g id="ytick_5">
     <g id="line2d_10">
      <path clip-path="url(#pb989c8fd6a)" d="M 97.02549 113.443824 
L 355.2885 113.443824 
" style="fill:none;stroke:#ffffff;stroke-linecap:round;stroke-width:1.5;"/>
     </g>
     <g id="text_11">
      <!-- 60000 -->
      <g style="fill:#262626;" transform="translate(50.406584 117.518486)scale(0.10725 -0.10725)">
       <use xlink:href="#DejaVuSans-54"/>
       <use x="63.623047" xlink:href="#DejaVuSans-48"/>
       <use x="127.246094" xlink:href="#DejaVuSans-48"/>
       <use x="190.869141" xlink:href="#DejaVuSans-48"/>
       <use x="254.492188" xlink:href="#DejaVuSans-48"/>
      </g>
     </g>
    </g>
    <g id="ytick_6">
     <g id="line2d_11">
      <path clip-path="url(#pb989c8fd6a)" d="M 97.02549 68.978146 
L 355.2885 68.978146 
" style="fill:none;stroke:#ffffff;stroke-linecap:round;stroke-width:1.5;"/>
     </g>
     <g id="text_12">
      <!-- 70000 -->
      <defs>
       <path d="M 8.203125 72.90625 
L 55.078125 72.90625 
L 55.078125 68.703125 
L 28.609375 0 
L 18.3125 0 
L 43.21875 64.59375 
L 8.203125 64.59375 
z
" id="DejaVuSans-55"/>
      </defs>
      <g style="fill:#262626;" transform="translate(50.406584 73.052808)scale(0.10725 -0.10725)">
       <use xlink:href="#DejaVuSans-55"/>
       <use x="63.623047" xlink:href="#DejaVuSans-48"/>
       <use x="127.246094" xlink:href="#DejaVuSans-48"/>
       <use x="190.869141" xlink:href="#DejaVuSans-48"/>
       <use x="254.492188" xlink:href="#DejaVuSans-48"/>
      </g>
     </g>
    </g>
    <g id="ytick_7">
     <g id="line2d_12">
      <path clip-path="url(#pb989c8fd6a)" d="M 97.02549 24.512468 
L 355.2885 24.512468 
" style="fill:none;stroke:#ffffff;stroke-linecap:round;stroke-width:1.5;"/>
     </g>
     <g id="text_13">
      <!-- 80000 -->
      <g style="fill:#262626;" transform="translate(50.406584 28.58713)scale(0.10725 -0.10725)">
       <use xlink:href="#DejaVuSans-56"/>
       <use x="63.623047" xlink:href="#DejaVuSans-48"/>
       <use x="127.246094" xlink:href="#DejaVuSans-48"/>
       <use x="190.869141" xlink:href="#DejaVuSans-48"/>
       <use x="254.492188" xlink:href="#DejaVuSans-48"/>
      </g>
     </g>
    </g>
    <g id="text_14">
     <!-- objective -->
     <defs>
      <path d="M 48.6875 27.296875 
Q 48.6875 37.203125 44.609375 42.84375 
Q 40.53125 48.484375 33.40625 48.484375 
Q 26.265625 48.484375 22.1875 42.84375 
Q 18.109375 37.203125 18.109375 27.296875 
Q 18.109375 17.390625 22.1875 11.75 
Q 26.265625 6.109375 33.40625 6.109375 
Q 40.53125 6.109375 44.609375 11.75 
Q 48.6875 17.390625 48.6875 27.296875 
z
M 18.109375 46.390625 
Q 20.953125 51.265625 25.265625 53.625 
Q 29.59375 56 35.59375 56 
Q 45.5625 56 51.78125 48.09375 
Q 58.015625 40.1875 58.015625 27.296875 
Q 58.015625 14.40625 51.78125 6.484375 
Q 45.5625 -1.421875 35.59375 -1.421875 
Q 29.59375 -1.421875 25.265625 0.953125 
Q 20.953125 3.328125 18.109375 8.203125 
L 18.109375 0 
L 9.078125 0 
L 9.078125 75.984375 
L 18.109375 75.984375 
z
" id="DejaVuSans-98"/>
      <path d="M 9.421875 54.6875 
L 18.40625 54.6875 
L 18.40625 -0.984375 
Q 18.40625 -11.421875 14.421875 -16.109375 
Q 10.453125 -20.796875 1.609375 -20.796875 
L -1.8125 -20.796875 
L -1.8125 -13.1875 
L 0.59375 -13.1875 
Q 5.71875 -13.1875 7.5625 -10.8125 
Q 9.421875 -8.453125 9.421875 -0.984375 
z
M 9.421875 75.984375 
L 18.40625 75.984375 
L 18.40625 64.59375 
L 9.421875 64.59375 
z
" id="DejaVuSans-106"/>
      <path d="M 48.78125 52.59375 
L 48.78125 44.1875 
Q 44.96875 46.296875 41.140625 47.34375 
Q 37.3125 48.390625 33.40625 48.390625 
Q 24.65625 48.390625 19.8125 42.84375 
Q 14.984375 37.3125 14.984375 27.296875 
Q 14.984375 17.28125 19.8125 11.734375 
Q 24.65625 6.203125 33.40625 6.203125 
Q 37.3125 6.203125 41.140625 7.25 
Q 44.96875 8.296875 48.78125 10.40625 
L 48.78125 2.09375 
Q 45.015625 0.34375 40.984375 -0.53125 
Q 36.96875 -1.421875 32.421875 -1.421875 
Q 20.0625 -1.421875 12.78125 6.34375 
Q 5.515625 14.109375 5.515625 27.296875 
Q 5.515625 40.671875 12.859375 48.328125 
Q 20.21875 56 33.015625 56 
Q 37.15625 56 41.109375 55.140625 
Q 45.0625 54.296875 48.78125 52.59375 
z
" id="DejaVuSans-99"/>
      <path d="M 2.984375 54.6875 
L 12.5 54.6875 
L 29.59375 8.796875 
L 46.6875 54.6875 
L 56.203125 54.6875 
L 35.6875 0 
L 23.484375 0 
z
" id="DejaVuSans-118"/>
     </defs>
     <g style="fill:#262626;" transform="translate(43.973349 187.665305)rotate(-90)scale(0.117 -0.117)">
      <use xlink:href="#DejaVuSans-111"/>
      <use x="61.181641" xlink:href="#DejaVuSans-98"/>
      <use x="124.658203" xlink:href="#DejaVuSans-106"/>
      <use x="152.441406" xlink:href="#DejaVuSans-101"/>
      <use x="213.964844" xlink:href="#DejaVuSans-99"/>
      <use x="268.945312" xlink:href="#DejaVuSans-116"/>
      <use x="308.154297" xlink:href="#DejaVuSans-105"/>
      <use x="335.9375" xlink:href="#DejaVuSans-118"/>
      <use x="395.117188" xlink:href="#DejaVuSans-101"/>
     </g>
    </g>
   </g>
   <g id="PolyCollection_1">
    <defs>
     <path d="M 108.764718 -287.875566 
L 108.764718 -253.536213 
L 111.526889 -198.001374 
L 114.28906 -203.515604 
L 117.051231 -212.41433 
L 119.813403 -188.109897 
L 122.575574 -186.896856 
L 125.337745 -180.299152 
L 128.099916 -179.114978 
L 130.862088 -175.571983 
L 133.624259 -171.519463 
L 136.38643 -167.264714 
L 139.148601 -166.164573 
L 141.910772 -163.157773 
L 144.672944 -161.772733 
L 147.435115 -161.361236 
L 150.197286 -158.576584 
L 152.959457 -157.30265 
L 155.721629 -158.398154 
L 158.4838 -156.080758 
L 161.245971 -154.879875 
L 164.008142 -155.195897 
L 166.770314 -153.905141 
L 169.532485 -153.207654 
L 172.294656 -153.832507 
L 175.056827 -152.480605 
L 177.818998 -151.29664 
L 180.58117 -151.828979 
L 183.343341 -151.664767 
L 186.105512 -150.863561 
L 188.867683 -150.8064 
L 191.629855 -150.362857 
L 194.392026 -150.478395 
L 197.154197 -149.935161 
L 199.916368 -149.973257 
L 202.67854 -150.260382 
L 205.440711 -148.584748 
L 208.202882 -149.331345 
L 210.965053 -149.613683 
L 213.727224 -147.513494 
L 216.489396 -147.291677 
L 219.251567 -147.882264 
L 222.013738 -146.538132 
L 224.775909 -146.821396 
L 227.538081 -146.663618 
L 230.300252 -146.533222 
L 233.062423 -146.247554 
L 235.824594 -146.184876 
L 238.586766 -146.259621 
L 241.348937 -146.242822 
L 244.111108 -146.02531 
L 246.873279 -145.848331 
L 249.63545 -146.07585 
L 252.397622 -145.968895 
L 255.159793 -145.714763 
L 257.921964 -145.848331 
L 260.684135 -145.683499 
L 263.446307 -145.714763 
L 266.208478 -145.714763 
L 268.970649 -145.647718 
L 271.73282 -145.646213 
L 274.494992 -145.647718 
L 277.257163 -145.647718 
L 280.019334 -145.610462 
L 282.781505 -145.610462 
L 285.543676 -145.610462 
L 288.305848 -145.610462 
L 291.068019 -145.610462 
L 293.83019 -145.610462 
L 296.592361 -145.610462 
L 299.354533 -145.610462 
L 302.116704 -145.610462 
L 304.878875 -145.610462 
L 307.641046 -145.610462 
L 310.403218 -145.610462 
L 313.165389 -145.610462 
L 315.92756 -145.610462 
L 318.689731 -145.610462 
L 321.451902 -145.610462 
L 324.214074 -145.610462 
L 326.976245 -145.610462 
L 329.738416 -145.610462 
L 332.500587 -145.610462 
L 335.262759 -145.610462 
L 338.02493 -145.610462 
L 340.787101 -145.610462 
L 343.549272 -145.610462 
L 343.549272 -182.830932 
L 343.549272 -182.830932 
L 340.787101 -182.830932 
L 338.02493 -182.830932 
L 335.262759 -182.830932 
L 332.500587 -182.830932 
L 329.738416 -182.830932 
L 326.976245 -182.830932 
L 324.214074 -182.830932 
L 321.451902 -182.830932 
L 318.689731 -182.830932 
L 315.92756 -182.830932 
L 313.165389 -182.830932 
L 310.403218 -182.830932 
L 307.641046 -182.830932 
L 304.878875 -182.830932 
L 302.116704 -182.830932 
L 299.354533 -182.830932 
L 296.592361 -182.830932 
L 293.83019 -182.830932 
L 291.068019 -182.830932 
L 288.305848 -182.830932 
L 285.543676 -182.830932 
L 282.781505 -182.830932 
L 280.019334 -182.830932 
L 277.257163 -182.824398 
L 274.494992 -182.824398 
L 271.73282 -182.888154 
L 268.970649 -182.824398 
L 266.208478 -182.934407 
L 263.446307 -182.934407 
L 260.684135 -182.881591 
L 257.921964 -182.911599 
L 255.159793 -182.934407 
L 252.397622 -182.892093 
L 249.63545 -182.875687 
L 246.873279 -182.911599 
L 244.111108 -182.994138 
L 241.348937 -183.054738 
L 238.586766 -182.849566 
L 235.824594 -183.073878 
L 233.062423 -183.064558 
L 230.300252 -183.10632 
L 227.538081 -183.013114 
L 224.775909 -182.994392 
L 222.013738 -183.118388 
L 219.251567 -183.130054 
L 216.489396 -183.065783 
L 213.727224 -183.303175 
L 210.965053 -183.683363 
L 208.202882 -183.508917 
L 205.440711 -183.740521 
L 202.67854 -183.975294 
L 199.916368 -183.867078 
L 197.154197 -184.154991 
L 194.392026 -184.186577 
L 191.629855 -184.583462 
L 188.867683 -184.37114 
L 186.105512 -184.928414 
L 183.343341 -185.120005 
L 180.58117 -185.282414 
L 177.818998 -185.885898 
L 175.056827 -186.066625 
L 172.294656 -186.178856 
L 169.532485 -187.197433 
L 166.770314 -187.579249 
L 164.008142 -186.813187 
L 161.245971 -188.656403 
L 158.4838 -189.155727 
L 155.721629 -189.308196 
L 152.959457 -190.250901 
L 150.197286 -191.047451 
L 147.435115 -193.500855 
L 144.672944 -194.075688 
L 141.910772 -196.798468 
L 139.148601 -202.355758 
L 136.38643 -199.785824 
L 133.624259 -203.357034 
L 130.862088 -212.949818 
L 128.099916 -209.058373 
L 125.337745 -215.768879 
L 122.575574 -225.5685 
L 119.813403 -231.217725 
L 117.051231 -249.817012 
L 114.28906 -250.737787 
L 111.526889 -260.134276 
L 108.764718 -287.875566 
z
" id="mbe6bed829d" style="stroke:#4c72b0;stroke-opacity:0.2;stroke-width:1.5;"/>
    </defs>
    <g clip-path="url(#pb989c8fd6a)">
     <use style="fill:#4c72b0;fill-opacity:0.2;stroke:#4c72b0;stroke-opacity:0.2;stroke-width:1.5;" x="0" xlink:href="#mbe6bed829d" y="360"/>
    </g>
   </g>
   <g id="PolyCollection_2">
    <defs>
     <path d="M 108.764718 -259.054576 
L 108.764718 -224.530802 
L 111.526889 -208.726194 
L 114.28906 -206.934931 
L 117.051231 -210.334654 
L 119.813403 -199.707394 
L 122.575574 -194.697178 
L 125.337745 -199.006467 
L 128.099916 -188.810138 
L 130.862088 -185.640596 
L 133.624259 -188.215484 
L 136.38643 -183.426082 
L 139.148601 -179.689926 
L 141.910772 -181.022438 
L 144.672944 -178.507287 
L 147.435115 -175.879127 
L 150.197286 -175.78127 
L 152.959457 -174.627682 
L 155.721629 -171.24887 
L 158.4838 -171.242438 
L 161.245971 -168.991598 
L 164.008142 -169.366935 
L 166.770314 -168.233453 
L 169.532485 -165.787116 
L 172.294656 -166.329643 
L 175.056827 -165.776732 
L 177.818998 -162.069616 
L 180.58117 -163.257282 
L 183.343341 -164.144688 
L 186.105512 -157.060514 
L 188.867683 -158.374025 
L 191.629855 -157.655243 
L 194.392026 -154.967943 
L 197.154197 -155.021234 
L 199.916368 -155.038199 
L 202.67854 -154.168384 
L 205.440711 -152.51559 
L 208.202882 -152.299503 
L 210.965053 -150.31709 
L 213.727224 -150.448429 
L 216.489396 -150.189657 
L 219.251567 -147.783051 
L 222.013738 -148.186501 
L 224.775909 -147.907936 
L 227.538081 -146.475598 
L 230.300252 -145.869223 
L 233.062423 -146.877439 
L 235.824594 -146.299141 
L 238.586766 -145.264253 
L 241.348937 -145.291698 
L 244.111108 -145.525251 
L 246.873279 -145.240131 
L 249.63545 -144.902627 
L 252.397622 -144.421074 
L 255.159793 -144.706074 
L 257.921964 -144.519522 
L 260.684135 -143.846364 
L 263.446307 -143.775113 
L 266.208478 -143.49179 
L 268.970649 -143.433054 
L 271.73282 -143.285263 
L 274.494992 -143.403531 
L 277.257163 -143.008099 
L 280.019334 -142.989736 
L 282.781505 -143.017887 
L 285.543676 -142.935508 
L 288.305848 -142.859477 
L 291.068019 -142.930724 
L 293.83019 -142.853962 
L 296.592361 -142.784481 
L 299.354533 -142.794828 
L 302.116704 -142.771771 
L 304.878875 -142.760325 
L 307.641046 -142.708608 
L 310.403218 -142.715334 
L 313.165389 -142.669812 
L 315.92756 -142.603737 
L 318.689731 -142.639408 
L 321.451902 -142.64119 
L 324.214074 -142.557355 
L 326.976245 -142.541946 
L 329.738416 -142.536242 
L 332.500587 -142.541385 
L 335.262759 -142.509849 
L 338.02493 -142.529656 
L 340.787101 -142.497941 
L 343.549272 -142.498523 
L 343.549272 -185.293672 
L 343.549272 -185.293672 
L 340.787101 -185.382376 
L 338.02493 -185.459805 
L 335.262759 -185.332471 
L 332.500587 -185.508711 
L 329.738416 -185.499302 
L 326.976245 -185.512192 
L 324.214074 -185.614011 
L 321.451902 -185.666807 
L 318.689731 -185.64676 
L 315.92756 -185.840891 
L 313.165389 -185.854045 
L 310.403218 -185.839245 
L 307.641046 -186.336711 
L 304.878875 -186.135427 
L 302.116704 -186.303461 
L 299.354533 -186.539921 
L 296.592361 -186.493676 
L 293.83019 -186.631162 
L 291.068019 -186.609377 
L 288.305848 -186.816446 
L 285.543676 -186.884322 
L 282.781505 -186.899767 
L 280.019334 -187.066166 
L 277.257163 -187.085801 
L 274.494992 -187.135835 
L 271.73282 -187.314737 
L 268.970649 -187.482249 
L 266.208478 -187.279605 
L 263.446307 -187.725519 
L 260.684135 -188.022121 
L 257.921964 -188.059605 
L 255.159793 -188.325795 
L 252.397622 -188.635049 
L 249.63545 -188.818055 
L 246.873279 -189.657679 
L 244.111108 -189.568209 
L 241.348937 -189.252004 
L 238.586766 -190.226164 
L 235.824594 -190.245516 
L 233.062423 -189.762618 
L 230.300252 -190.537995 
L 227.538081 -190.993137 
L 224.775909 -191.444526 
L 222.013738 -191.174855 
L 219.251567 -191.689873 
L 216.489396 -193.089529 
L 213.727224 -194.415352 
L 210.965053 -193.981573 
L 208.202882 -195.257282 
L 205.440711 -196.824672 
L 202.67854 -197.447713 
L 199.916368 -196.447734 
L 197.154197 -198.316088 
L 194.392026 -198.856077 
L 191.629855 -198.227942 
L 188.867683 -199.23847 
L 186.105512 -200.400798 
L 183.343341 -199.975157 
L 180.58117 -200.282084 
L 177.818998 -201.132619 
L 175.056827 -201.809819 
L 172.294656 -202.362083 
L 169.532485 -202.992732 
L 166.770314 -203.599975 
L 164.008142 -204.676033 
L 161.245971 -205.192043 
L 158.4838 -207.004557 
L 155.721629 -207.782338 
L 152.959457 -208.647169 
L 150.197286 -209.771032 
L 147.435115 -210.61989 
L 144.672944 -213.213618 
L 141.910772 -214.611446 
L 139.148601 -214.709429 
L 136.38643 -216.927631 
L 133.624259 -220.582666 
L 130.862088 -220.074061 
L 128.099916 -223.031081 
L 125.337745 -230.626683 
L 122.575574 -230.432002 
L 119.813403 -236.030489 
L 117.051231 -239.927337 
L 114.28906 -242.019768 
L 111.526889 -245.888582 
L 108.764718 -259.054576 
z
" id="ma49f8c33a5" style="stroke:#dd8452;stroke-opacity:0.2;stroke-width:1.5;"/>
    </defs>
    <g clip-path="url(#pb989c8fd6a)">
     <use style="fill:#dd8452;fill-opacity:0.2;stroke:#dd8452;stroke-opacity:0.2;stroke-width:1.5;" x="0" xlink:href="#ma49f8c33a5" y="360"/>
    </g>
   </g>
   <g id="PolyCollection_3">
    <defs>
     <path d="M 108.764718 -334.365427 
L 108.764718 -304.534522 
L 111.526889 -267.242314 
L 114.28906 -261.48785 
L 117.051231 -265.360219 
L 119.813403 -244.400959 
L 122.575574 -239.306485 
L 125.337745 -237.826443 
L 128.099916 -227.164707 
L 130.862088 -227.621686 
L 133.624259 -221.700205 
L 136.38643 -214.538619 
L 139.148601 -215.1479 
L 141.910772 -211.110087 
L 144.672944 -207.037723 
L 147.435115 -202.479839 
L 150.197286 -201.782496 
L 152.959457 -198.516862 
L 155.721629 -198.675139 
L 158.4838 -192.517427 
L 161.245971 -191.081757 
L 164.008142 -190.8299 
L 166.770314 -187.788008 
L 169.532485 -185.809422 
L 172.294656 -185.725237 
L 175.056827 -183.454269 
L 177.818998 -179.932583 
L 180.58117 -182.829616 
L 183.343341 -180.812056 
L 186.105512 -178.089983 
L 188.867683 -176.915221 
L 191.629855 -176.590919 
L 194.392026 -175.354535 
L 197.154197 -174.634996 
L 199.916368 -174.000846 
L 202.67854 -173.266964 
L 205.440711 -172.781412 
L 208.202882 -171.97094 
L 210.965053 -171.611793 
L 213.727224 -171.207369 
L 216.489396 -170.459934 
L 219.251567 -169.977088 
L 222.013738 -169.230254 
L 224.775909 -168.087972 
L 227.538081 -168.732571 
L 230.300252 -166.271733 
L 233.062423 -166.865331 
L 235.824594 -166.824533 
L 238.586766 -164.771597 
L 241.348937 -164.173451 
L 244.111108 -163.697316 
L 246.873279 -163.98561 
L 249.63545 -162.643998 
L 252.397622 -162.671146 
L 255.159793 -162.878922 
L 257.921964 -160.690088 
L 260.684135 -161.277079 
L 263.446307 -161.009896 
L 266.208478 -159.986255 
L 268.970649 -160.395511 
L 271.73282 -160.037572 
L 274.494992 -159.553495 
L 277.257163 -159.724278 
L 280.019334 -159.391933 
L 282.781505 -158.935785 
L 285.543676 -159.582371 
L 288.305848 -159.235795 
L 291.068019 -158.615745 
L 293.83019 -158.471736 
L 296.592361 -158.416646 
L 299.354533 -158.049357 
L 302.116704 -157.847211 
L 304.878875 -157.457324 
L 307.641046 -157.550862 
L 310.403218 -157.590374 
L 313.165389 -157.352798 
L 315.92756 -156.747435 
L 318.689731 -157.304459 
L 321.451902 -157.189663 
L 324.214074 -156.553074 
L 326.976245 -156.549313 
L 329.738416 -156.520447 
L 332.500587 -156.301324 
L 335.262759 -156.263334 
L 338.02493 -155.865319 
L 340.787101 -155.953281 
L 343.549272 -156.085865 
L 343.549272 -192.15084 
L 343.549272 -192.15084 
L 340.787101 -192.513029 
L 338.02493 -191.855584 
L 335.262759 -193.949265 
L 332.500587 -193.815067 
L 329.738416 -192.692886 
L 326.976245 -194.30925 
L 324.214074 -194.822908 
L 321.451902 -194.550129 
L 318.689731 -194.434525 
L 315.92756 -196.623035 
L 313.165389 -195.63365 
L 310.403218 -194.973246 
L 307.641046 -196.793002 
L 304.878875 -197.276221 
L 302.116704 -197.0836 
L 299.354533 -197.94378 
L 296.592361 -197.722823 
L 293.83019 -197.934527 
L 291.068019 -198.656386 
L 288.305848 -198.69847 
L 285.543676 -198.581499 
L 282.781505 -200.069699 
L 280.019334 -200.013742 
L 277.257163 -199.639357 
L 274.494992 -200.418915 
L 271.73282 -200.782111 
L 268.970649 -200.851851 
L 266.208478 -201.852097 
L 263.446307 -201.737981 
L 260.684135 -201.722231 
L 257.921964 -202.229993 
L 255.159793 -203.200647 
L 252.397622 -204.532192 
L 249.63545 -204.192296 
L 246.873279 -204.301074 
L 244.111108 -205.768112 
L 241.348937 -205.827991 
L 238.586766 -207.010089 
L 235.824594 -208.585553 
L 233.062423 -208.348296 
L 230.300252 -208.717949 
L 227.538081 -210.430417 
L 224.775909 -209.143589 
L 222.013738 -210.791326 
L 219.251567 -213.459456 
L 216.489396 -212.286988 
L 213.727224 -213.492001 
L 210.965053 -214.362529 
L 208.202882 -217.242909 
L 205.440711 -217.248988 
L 202.67854 -217.714193 
L 199.916368 -220.86742 
L 197.154197 -219.963242 
L 194.392026 -222.437955 
L 191.629855 -223.371496 
L 188.867683 -222.6276 
L 186.105512 -225.909107 
L 183.343341 -227.842187 
L 180.58117 -227.513514 
L 177.818998 -228.990071 
L 175.056827 -231.380703 
L 172.294656 -230.944147 
L 169.532485 -232.720244 
L 166.770314 -236.457519 
L 164.008142 -237.006028 
L 161.245971 -239.139957 
L 158.4838 -239.954249 
L 155.721629 -241.018573 
L 152.959457 -243.794665 
L 150.197286 -248.539321 
L 147.435115 -246.916283 
L 144.672944 -251.034866 
L 141.910772 -257.537248 
L 139.148601 -258.406829 
L 136.38643 -258.548817 
L 133.624259 -267.612352 
L 130.862088 -267.066368 
L 128.099916 -269.746631 
L 125.337745 -281.991186 
L 122.575574 -278.498062 
L 119.813403 -280.944967 
L 117.051231 -304.224206 
L 114.28906 -305.532118 
L 111.526889 -302.123825 
L 108.764718 -334.365427 
z
" id="m0b9f1254b8" style="stroke:#55a868;stroke-opacity:0.2;stroke-width:1.5;"/>
    </defs>
    <g clip-path="url(#pb989c8fd6a)">
     <use style="fill:#55a868;fill-opacity:0.2;stroke:#55a868;stroke-opacity:0.2;stroke-width:1.5;" x="0" xlink:href="#m0b9f1254b8" y="360"/>
    </g>
   </g>
   <g id="PolyCollection_4">
    <defs>
     <path d="M 108.764718 -305.248019 
L 108.764718 -264.342873 
L 111.526889 -248.293186 
L 114.28906 -246.708573 
L 117.051231 -247.678436 
L 119.813403 -235.12386 
L 122.575574 -231.233598 
L 125.337745 -234.867659 
L 128.099916 -226.296915 
L 130.862088 -226.027722 
L 133.624259 -225.416781 
L 136.38643 -218.038318 
L 139.148601 -218.117391 
L 141.910772 -216.050639 
L 144.672944 -210.98975 
L 147.435115 -211.94488 
L 150.197286 -214.067627 
L 152.959457 -206.753398 
L 155.721629 -205.36227 
L 158.4838 -206.309013 
L 161.245971 -199.385657 
L 164.008142 -198.844134 
L 166.770314 -199.633494 
L 169.532485 -196.492554 
L 172.294656 -194.697568 
L 175.056827 -195.367834 
L 177.818998 -192.736997 
L 180.58117 -190.659922 
L 183.343341 -191.993804 
L 186.105512 -190.705791 
L 188.867683 -186.503385 
L 191.629855 -188.222012 
L 194.392026 -187.338981 
L 197.154197 -185.318331 
L 199.916368 -184.665942 
L 202.67854 -184.923422 
L 205.440711 -183.367999 
L 208.202882 -183.283429 
L 210.965053 -182.250339 
L 213.727224 -180.791661 
L 216.489396 -181.118781 
L 219.251567 -179.709105 
L 222.013738 -179.078233 
L 224.775909 -179.072039 
L 227.538081 -178.036138 
L 230.300252 -177.757978 
L 233.062423 -175.85985 
L 235.824594 -175.347716 
L 238.586766 -176.107823 
L 241.348937 -175.086804 
L 244.111108 -172.895487 
L 246.873279 -173.257859 
L 249.63545 -170.691151 
L 252.397622 -171.306184 
L 255.159793 -169.294437 
L 257.921964 -169.124222 
L 260.684135 -168.482049 
L 263.446307 -168.106816 
L 266.208478 -165.992193 
L 268.970649 -166.157426 
L 271.73282 -165.744129 
L 274.494992 -165.904068 
L 277.257163 -165.048707 
L 280.019334 -164.278966 
L 282.781505 -164.616219 
L 285.543676 -164.003525 
L 288.305848 -163.394889 
L 291.068019 -162.483265 
L 293.83019 -162.654061 
L 296.592361 -162.200445 
L 299.354533 -161.752664 
L 302.116704 -161.215809 
L 304.878875 -161.359481 
L 307.641046 -161.196348 
L 310.403218 -160.485995 
L 313.165389 -160.191386 
L 315.92756 -160.398359 
L 318.689731 -159.476437 
L 321.451902 -159.241333 
L 324.214074 -159.035105 
L 326.976245 -158.787919 
L 329.738416 -158.642219 
L 332.500587 -158.359839 
L 335.262759 -157.987435 
L 338.02493 -157.29548 
L 340.787101 -157.622979 
L 343.549272 -157.752173 
L 343.549272 -187.108374 
L 343.549272 -187.108374 
L 340.787101 -188.246535 
L 338.02493 -188.704197 
L 335.262759 -189.251622 
L 332.500587 -189.891418 
L 329.738416 -189.018049 
L 326.976245 -190.12709 
L 324.214074 -190.545272 
L 321.451902 -190.743278 
L 318.689731 -190.838837 
L 315.92756 -191.208845 
L 313.165389 -191.256549 
L 310.403218 -191.372641 
L 307.641046 -192.27033 
L 304.878875 -192.538109 
L 302.116704 -191.781958 
L 299.354533 -192.822422 
L 296.592361 -193.152386 
L 293.83019 -193.308354 
L 291.068019 -193.460555 
L 288.305848 -193.840052 
L 285.543676 -194.263021 
L 282.781505 -194.371479 
L 280.019334 -194.566442 
L 277.257163 -195.412017 
L 274.494992 -195.799269 
L 271.73282 -195.598632 
L 268.970649 -196.204004 
L 266.208478 -197.623169 
L 263.446307 -197.430272 
L 260.684135 -198.198211 
L 257.921964 -200.71391 
L 255.159793 -199.857306 
L 252.397622 -199.932212 
L 249.63545 -201.775306 
L 246.873279 -201.6914 
L 244.111108 -202.002839 
L 241.348937 -201.807626 
L 238.586766 -202.874068 
L 235.824594 -203.202455 
L 233.062423 -204.57324 
L 230.300252 -205.385093 
L 227.538081 -206.635744 
L 224.775909 -206.365461 
L 222.013738 -207.328618 
L 219.251567 -208.297702 
L 216.489396 -209.253601 
L 213.727224 -210.686703 
L 210.965053 -210.485999 
L 208.202882 -212.266374 
L 205.440711 -213.602281 
L 202.67854 -214.447196 
L 199.916368 -216.515642 
L 197.154197 -216.810776 
L 194.392026 -217.044131 
L 191.629855 -218.922824 
L 188.867683 -221.318946 
L 186.105512 -221.290654 
L 183.343341 -224.205052 
L 180.58117 -223.546872 
L 177.818998 -223.728653 
L 175.056827 -227.77656 
L 172.294656 -228.017531 
L 169.532485 -227.109433 
L 166.770314 -230.596304 
L 164.008142 -231.833555 
L 161.245971 -231.376921 
L 158.4838 -236.644436 
L 155.721629 -237.855548 
L 152.959457 -239.125085 
L 150.197286 -241.814825 
L 147.435115 -243.549508 
L 144.672944 -244.114149 
L 141.910772 -248.385393 
L 139.148601 -250.753081 
L 136.38643 -250.49664 
L 133.624259 -254.258851 
L 130.862088 -257.403238 
L 128.099916 -258.099355 
L 125.337745 -268.423291 
L 122.575574 -270.471139 
L 119.813403 -268.273807 
L 117.051231 -286.550116 
L 114.28906 -288.641322 
L 111.526889 -282.50019 
L 108.764718 -305.248019 
z
" id="mfe26d8f40b" style="stroke:#c44e52;stroke-opacity:0.2;stroke-width:1.5;"/>
    </defs>
    <g clip-path="url(#pb989c8fd6a)">
     <use style="fill:#c44e52;fill-opacity:0.2;stroke:#c44e52;stroke-opacity:0.2;stroke-width:1.5;" x="0" xlink:href="#mfe26d8f40b" y="360"/>
    </g>
   </g>
   <g id="line2d_13">
    <path clip-path="url(#pb989c8fd6a)" d="M 108.764718 89.29411 
L 111.526889 130.932175 
L 114.28906 132.873304 
L 117.051231 128.884329 
L 119.813403 150.336189 
L 122.575574 153.767322 
L 125.337745 161.965985 
L 128.099916 165.913324 
L 130.862088 165.7391 
L 133.624259 172.561751 
L 136.38643 176.474731 
L 139.148601 175.739835 
L 141.910772 180.02188 
L 144.672944 182.07579 
L 147.435115 182.568954 
L 150.197286 185.187983 
L 152.959457 186.223225 
L 155.721629 186.146825 
L 158.4838 187.381758 
L 161.245971 188.231861 
L 164.008142 188.995458 
L 166.770314 189.257805 
L 169.532485 189.797457 
L 172.294656 189.994318 
L 175.056827 190.726385 
L 177.818998 191.408731 
L 180.58117 191.444304 
L 183.343341 191.607614 
L 186.105512 192.104013 
L 188.867683 192.41123 
L 191.629855 192.526841 
L 194.392026 192.667514 
L 197.154197 192.954924 
L 199.916368 193.079832 
L 202.67854 192.882162 
L 205.440711 193.837366 
L 208.202882 193.579869 
L 210.965053 193.351477 
L 213.727224 194.591665 
L 216.489396 194.82127 
L 219.251567 194.493841 
L 222.013738 195.17174 
L 224.775909 195.092106 
L 227.538081 195.161634 
L 230.300252 195.180229 
L 233.062423 195.343944 
L 235.824594 195.370623 
L 238.586766 195.445406 
L 241.348937 195.35122 
L 244.111108 195.490276 
L 246.873279 195.620035 
L 249.63545 195.524232 
L 252.397622 195.569506 
L 255.159793 195.675415 
L 257.921964 195.620035 
L 260.684135 195.717455 
L 263.446307 195.675415 
L 266.208478 195.675415 
L 268.970649 195.763942 
L 271.73282 195.732816 
L 274.494992 195.763942 
L 277.257163 195.763942 
L 280.019334 195.779303 
L 282.781505 195.779303 
L 285.543676 195.779303 
L 288.305848 195.779303 
L 291.068019 195.779303 
L 293.83019 195.779303 
L 296.592361 195.779303 
L 299.354533 195.779303 
L 302.116704 195.779303 
L 304.878875 195.779303 
L 307.641046 195.779303 
L 310.403218 195.779303 
L 313.165389 195.779303 
L 315.92756 195.779303 
L 318.689731 195.779303 
L 321.451902 195.779303 
L 324.214074 195.779303 
L 326.976245 195.779303 
L 329.738416 195.779303 
L 332.500587 195.779303 
L 335.262759 195.779303 
L 338.02493 195.779303 
L 340.787101 195.779303 
L 343.549272 195.779303 
" style="fill:none;stroke:#4c72b0;stroke-linecap:round;stroke-width:2.25;"/>
   </g>
   <g id="line2d_14">
    <path clip-path="url(#pb989c8fd6a)" d="M 108.764718 118.207311 
L 111.526889 132.692612 
L 114.28906 135.52265 
L 117.051231 134.869005 
L 119.813403 142.131058 
L 122.575574 147.43541 
L 125.337745 145.183425 
L 128.099916 154.07939 
L 130.862088 157.142671 
L 133.624259 155.600925 
L 136.38643 159.823143 
L 139.148601 162.800322 
L 141.910772 162.183058 
L 144.672944 164.139548 
L 147.435115 166.750492 
L 150.197286 167.223849 
L 152.959457 168.362575 
L 155.721629 170.484396 
L 158.4838 170.876502 
L 161.245971 172.90818 
L 164.008142 172.978516 
L 166.770314 174.083286 
L 169.532485 175.610076 
L 172.294656 175.654137 
L 175.056827 176.206724 
L 177.818998 178.398882 
L 180.58117 178.230317 
L 183.343341 177.940077 
L 186.105512 181.269344 
L 188.867683 181.193752 
L 191.629855 182.058408 
L 194.392026 183.08799 
L 197.154197 183.331339 
L 199.916368 184.257033 
L 202.67854 184.191952 
L 205.440711 185.329869 
L 208.202882 186.221608 
L 210.965053 187.850669 
L 213.727224 187.568109 
L 216.489396 188.360407 
L 219.251567 190.263538 
L 222.013738 190.319322 
L 224.775909 190.323769 
L 227.538081 191.265633 
L 230.300252 191.796391 
L 233.062423 191.679972 
L 235.824594 191.727671 
L 238.586766 192.254792 
L 241.348937 192.728149 
L 244.111108 192.45327 
L 246.873279 192.551095 
L 249.63545 193.139659 
L 252.397622 193.471939 
L 255.159793 193.484066 
L 257.921964 193.710436 
L 260.684135 194.065758 
L 263.446307 194.249684 
L 266.208478 194.614302 
L 268.970649 194.542349 
L 271.73282 194.7 
L 274.494992 194.730317 
L 277.257163 194.95305 
L 280.019334 194.972049 
L 282.781505 195.041173 
L 285.543676 195.090085 
L 288.305848 195.162039 
L 291.068019 195.22995 
L 293.83019 195.257438 
L 296.592361 195.360922 
L 299.354533 195.332625 
L 302.116704 195.462384 
L 304.878875 195.552124 
L 307.641046 195.477341 
L 310.403218 195.72271 
L 313.165389 195.738071 
L 315.92756 195.777686 
L 318.689731 195.856916 
L 321.451902 195.846002 
L 324.214074 195.914317 
L 326.976245 195.972931 
L 329.738416 195.982228 
L 332.500587 195.974952 
L 335.262759 196.07884 
L 338.02493 196.00527 
L 340.787101 196.059841 
L 343.549272 196.103903 
" style="fill:none;stroke:#dd8452;stroke-linecap:round;stroke-width:2.25;"/>
   </g>
   <g id="line2d_15">
    <path clip-path="url(#pb989c8fd6a)" d="M 108.764718 40.550026 
L 111.526889 75.316931 
L 114.28906 76.490016 
L 117.051231 75.207788 
L 119.813403 97.327037 
L 122.575574 101.097727 
L 125.337745 100.091185 
L 128.099916 111.544331 
L 130.862088 112.655973 
L 133.624259 115.343721 
L 136.38643 123.456282 
L 139.148601 123.222635 
L 141.910772 125.676332 
L 144.672944 130.963706 
L 147.435115 135.301939 
L 150.197286 134.839091 
L 152.959457 138.844236 
L 155.721629 140.153144 
L 158.4838 143.764162 
L 161.245971 144.889143 
L 164.008142 146.082036 
L 166.770314 147.877237 
L 169.532485 150.735167 
L 172.294656 151.665308 
L 175.056827 152.582514 
L 177.818998 155.538673 
L 180.58117 154.828435 
L 183.343341 155.672879 
L 186.105512 158.000455 
L 188.867683 160.228589 
L 191.629855 160.018792 
L 194.392026 161.103755 
L 197.154197 162.700881 
L 199.916368 162.565867 
L 202.67854 164.509421 
L 205.440711 164.9848 
L 208.202882 165.393076 
L 210.965053 167.012839 
L 213.727224 167.650315 
L 216.489396 168.626539 
L 219.251567 168.281728 
L 222.013738 169.98921 
L 224.775909 171.384219 
L 227.538081 170.418506 
L 230.300252 172.505159 
L 233.062423 172.393186 
L 235.824594 172.294957 
L 238.586766 174.109157 
L 241.348937 174.999279 
L 244.111108 175.267286 
L 246.873279 175.856658 
L 249.63545 176.581853 
L 252.397622 176.398331 
L 255.159793 176.960216 
L 257.921964 178.53996 
L 260.684135 178.500345 
L 263.446307 178.626061 
L 266.208478 179.080824 
L 268.970649 179.376319 
L 271.73282 179.590158 
L 274.494992 180.013795 
L 277.257163 180.318183 
L 280.019334 180.297163 
L 282.781505 180.497258 
L 285.543676 180.918065 
L 288.305848 181.032867 
L 291.068019 181.363935 
L 293.83019 181.796869 
L 296.592361 181.930266 
L 299.354533 182.003432 
L 302.116704 182.534595 
L 304.878875 182.633228 
L 307.641046 182.828068 
L 310.403218 183.71819 
L 313.165389 183.506776 
L 315.92756 183.314765 
L 318.689731 184.130508 
L 321.451902 184.130104 
L 324.214074 184.312009 
L 326.976245 184.570718 
L 329.738416 185.393333 
L 332.500587 184.941805 
L 335.262759 184.893701 
L 338.02493 186.139548 
L 340.787101 185.766845 
L 343.549272 185.881647 
" style="fill:none;stroke:#55a868;stroke-linecap:round;stroke-width:2.25;"/>
   </g>
   <g id="line2d_16">
    <path clip-path="url(#pb989c8fd6a)" d="M 108.764718 75.204554 
L 111.526889 94.603312 
L 114.28906 92.325053 
L 117.051231 92.885724 
L 119.813403 108.301166 
L 122.575574 109.147631 
L 125.337745 108.354525 
L 128.099916 117.801865 
L 130.862088 118.28452 
L 133.624259 120.162184 
L 136.38643 125.732521 
L 139.148601 125.564764 
L 141.910772 127.781984 
L 144.672944 132.448051 
L 147.435115 132.252806 
L 150.197286 132.058774 
L 152.959457 137.060758 
L 155.721629 138.391091 
L 158.4838 138.523275 
L 161.245971 144.618711 
L 164.008142 144.661156 
L 166.770314 144.885101 
L 169.532485 148.199007 
L 172.294656 148.642451 
L 175.056827 148.427803 
L 177.818998 151.767175 
L 180.58117 152.896603 
L 183.343341 151.900572 
L 186.105512 154.001778 
L 188.867683 156.088835 
L 191.629855 156.427582 
L 194.392026 157.808444 
L 197.154197 158.935447 
L 199.916368 159.409208 
L 202.67854 160.314691 
L 205.440711 161.51486 
L 208.202882 162.225098 
L 210.965053 163.631831 
L 213.727224 164.260818 
L 216.489396 164.813809 
L 219.251567 165.996596 
L 222.013738 166.796574 
L 224.775909 167.28125 
L 227.538081 167.664059 
L 230.300252 168.428465 
L 233.062423 169.783455 
L 235.824594 170.724915 
L 238.586766 170.509054 
L 241.348937 171.552785 
L 244.111108 172.550837 
L 246.873279 172.52537 
L 249.63545 173.766771 
L 252.397622 174.380802 
L 255.159793 175.424128 
L 257.921964 175.080934 
L 260.684135 176.65987 
L 263.446307 177.231456 
L 266.208478 178.192319 
L 268.970649 178.819285 
L 271.73282 179.328619 
L 274.494992 179.148331 
L 277.257163 179.769638 
L 280.019334 180.577296 
L 282.781505 180.506151 
L 285.543676 180.866727 
L 288.305848 181.382529 
L 291.068019 182.02809 
L 293.83019 182.018793 
L 296.592361 182.323585 
L 299.354533 182.712457 
L 302.116704 183.501117 
L 304.878875 183.051205 
L 307.641046 183.266661 
L 310.403218 184.070682 
L 313.165389 184.276032 
L 315.92756 184.196398 
L 318.689731 184.842363 
L 321.451902 185.007695 
L 324.214074 185.209811 
L 326.976245 185.542496 
L 329.738416 186.169866 
L 332.500587 185.874371 
L 335.262759 186.380471 
L 338.02493 187.000161 
L 340.787101 187.065243 
L 343.549272 187.569726 
" style="fill:none;stroke:#c44e52;stroke-linecap:round;stroke-width:2.25;"/>
   </g>
   <g id="line2d_17"/>
   <g id="line2d_18"/>
   <g id="line2d_19"/>
   <g id="line2d_20"/>
   <g id="line2d_21"/>
   <g id="line2d_22">
    <path clip-path="url(#pb989c8fd6a)" d="M 97.02549 285.606036 
L 355.2885 285.606036 
" style="fill:none;stroke:#008000;stroke-dasharray:8.325,3.6;stroke-dashoffset:0;stroke-width:2.25;"/>
   </g>
   <g id="patch_3">
    <path d="M 97.02549 309.264 
L 97.02549 12.636 
" style="fill:none;stroke:#ffffff;stroke-linecap:square;stroke-linejoin:miter;stroke-width:1.875;"/>
   </g>
   <g id="patch_4">
    <path d="M 97.02549 309.264 
L 355.2885 309.264 
" style="fill:none;stroke:#ffffff;stroke-linecap:square;stroke-linejoin:miter;stroke-width:1.875;"/>
   </g>
  </g>
  <g id="legend_1">
   <g id="line2d_23">
    <path d="M 359.273168 147.721102 
L 380.723168 147.721102 
" style="fill:none;"/>
   </g>
   <g id="line2d_24"/>
   <g id="text_15">
    <!-- MH -->
    <defs>
     <path d="M 9.8125 72.90625 
L 24.515625 72.90625 
L 43.109375 23.296875 
L 61.8125 72.90625 
L 76.515625 72.90625 
L 76.515625 0 
L 66.890625 0 
L 66.890625 64.015625 
L 48.09375 14.015625 
L 38.1875 14.015625 
L 19.390625 64.015625 
L 19.390625 0 
L 9.8125 0 
z
" id="DejaVuSans-77"/>
     <path d="M 9.8125 72.90625 
L 19.671875 72.90625 
L 19.671875 43.015625 
L 55.515625 43.015625 
L 55.515625 72.90625 
L 65.375 72.90625 
L 65.375 0 
L 55.515625 0 
L 55.515625 34.71875 
L 19.671875 34.71875 
L 19.671875 0 
L 9.8125 0 
z
" id="DejaVuSans-72"/>
    </defs>
    <g style="fill:#262626;" transform="translate(389.303168 151.474852)scale(0.10725 -0.10725)">
     <use xlink:href="#DejaVuSans-77"/>
     <use x="86.279297" xlink:href="#DejaVuSans-72"/>
    </g>
   </g>
   <g id="line2d_25">
    <path d="M 359.273168 163.463391 
L 380.723168 163.463391 
" style="fill:none;stroke:#4c72b0;stroke-linecap:round;stroke-width:2.25;"/>
   </g>
   <g id="line2d_26"/>
   <g id="text_16">
    <!-- combinations -->
    <defs>
     <path d="M 52 44.1875 
Q 55.375 50.25 60.0625 53.125 
Q 64.75 56 71.09375 56 
Q 79.640625 56 84.28125 50.015625 
Q 88.921875 44.046875 88.921875 33.015625 
L 88.921875 0 
L 79.890625 0 
L 79.890625 32.71875 
Q 79.890625 40.578125 77.09375 44.375 
Q 74.3125 48.1875 68.609375 48.1875 
Q 61.625 48.1875 57.5625 43.546875 
Q 53.515625 38.921875 53.515625 30.90625 
L 53.515625 0 
L 44.484375 0 
L 44.484375 32.71875 
Q 44.484375 40.625 41.703125 44.40625 
Q 38.921875 48.1875 33.109375 48.1875 
Q 26.21875 48.1875 22.15625 43.53125 
Q 18.109375 38.875 18.109375 30.90625 
L 18.109375 0 
L 9.078125 0 
L 9.078125 54.6875 
L 18.109375 54.6875 
L 18.109375 46.1875 
Q 21.1875 51.21875 25.484375 53.609375 
Q 29.78125 56 35.6875 56 
Q 41.65625 56 45.828125 52.96875 
Q 50 49.953125 52 44.1875 
z
" id="DejaVuSans-109"/>
     <path d="M 44.28125 53.078125 
L 44.28125 44.578125 
Q 40.484375 46.53125 36.375 47.5 
Q 32.28125 48.484375 27.875 48.484375 
Q 21.1875 48.484375 17.84375 46.4375 
Q 14.5 44.390625 14.5 40.28125 
Q 14.5 37.15625 16.890625 35.375 
Q 19.28125 33.59375 26.515625 31.984375 
L 29.59375 31.296875 
Q 39.15625 29.25 43.1875 25.515625 
Q 47.21875 21.78125 47.21875 15.09375 
Q 47.21875 7.46875 41.1875 3.015625 
Q 35.15625 -1.421875 24.609375 -1.421875 
Q 20.21875 -1.421875 15.453125 -0.5625 
Q 10.6875 0.296875 5.421875 2 
L 5.421875 11.28125 
Q 10.40625 8.6875 15.234375 7.390625 
Q 20.0625 6.109375 24.8125 6.109375 
Q 31.15625 6.109375 34.5625 8.28125 
Q 37.984375 10.453125 37.984375 14.40625 
Q 37.984375 18.0625 35.515625 20.015625 
Q 33.0625 21.96875 24.703125 23.78125 
L 21.578125 24.515625 
Q 13.234375 26.265625 9.515625 29.90625 
Q 5.8125 33.546875 5.8125 39.890625 
Q 5.8125 47.609375 11.28125 51.796875 
Q 16.75 56 26.8125 56 
Q 31.78125 56 36.171875 55.265625 
Q 40.578125 54.546875 44.28125 53.078125 
z
" id="DejaVuSans-115"/>
    </defs>
    <g style="fill:#262626;" transform="translate(389.303168 167.217141)scale(0.10725 -0.10725)">
     <use xlink:href="#DejaVuSans-99"/>
     <use x="54.980469" xlink:href="#DejaVuSans-111"/>
     <use x="116.162109" xlink:href="#DejaVuSans-109"/>
     <use x="213.574219" xlink:href="#DejaVuSans-98"/>
     <use x="277.050781" xlink:href="#DejaVuSans-105"/>
     <use x="304.833984" xlink:href="#DejaVuSans-110"/>
     <use x="368.212891" xlink:href="#DejaVuSans-97"/>
     <use x="429.492188" xlink:href="#DejaVuSans-116"/>
     <use x="468.701172" xlink:href="#DejaVuSans-105"/>
     <use x="496.484375" xlink:href="#DejaVuSans-111"/>
     <use x="557.666016" xlink:href="#DejaVuSans-110"/>
     <use x="621.044922" xlink:href="#DejaVuSans-115"/>
    </g>
   </g>
   <g id="line2d_27">
    <path d="M 359.273168 179.20568 
L 380.723168 179.20568 
" style="fill:none;stroke:#dd8452;stroke-linecap:round;stroke-width:2.25;"/>
   </g>
   <g id="line2d_28"/>
   <g id="text_17">
    <!-- ES -->
    <defs>
     <path d="M 9.8125 72.90625 
L 55.90625 72.90625 
L 55.90625 64.59375 
L 19.671875 64.59375 
L 19.671875 43.015625 
L 54.390625 43.015625 
L 54.390625 34.71875 
L 19.671875 34.71875 
L 19.671875 8.296875 
L 56.78125 8.296875 
L 56.78125 0 
L 9.8125 0 
z
" id="DejaVuSans-69"/>
     <path d="M 53.515625 70.515625 
L 53.515625 60.890625 
Q 47.90625 63.578125 42.921875 64.890625 
Q 37.9375 66.21875 33.296875 66.21875 
Q 25.25 66.21875 20.875 63.09375 
Q 16.5 59.96875 16.5 54.203125 
Q 16.5 49.359375 19.40625 46.890625 
Q 22.3125 44.4375 30.421875 42.921875 
L 36.375 41.703125 
Q 47.40625 39.59375 52.65625 34.296875 
Q 57.90625 29 57.90625 20.125 
Q 57.90625 9.515625 50.796875 4.046875 
Q 43.703125 -1.421875 29.984375 -1.421875 
Q 24.8125 -1.421875 18.96875 -0.25 
Q 13.140625 0.921875 6.890625 3.21875 
L 6.890625 13.375 
Q 12.890625 10.015625 18.65625 8.296875 
Q 24.421875 6.59375 29.984375 6.59375 
Q 38.421875 6.59375 43.015625 9.90625 
Q 47.609375 13.234375 47.609375 19.390625 
Q 47.609375 24.75 44.3125 27.78125 
Q 41.015625 30.8125 33.5 32.328125 
L 27.484375 33.5 
Q 16.453125 35.6875 11.515625 40.375 
Q 6.59375 45.0625 6.59375 53.421875 
Q 6.59375 63.09375 13.40625 68.65625 
Q 20.21875 74.21875 32.171875 74.21875 
Q 37.3125 74.21875 42.625 73.28125 
Q 47.953125 72.359375 53.515625 70.515625 
z
" id="DejaVuSans-83"/>
    </defs>
    <g style="fill:#262626;" transform="translate(389.303168 182.95943)scale(0.10725 -0.10725)">
     <use xlink:href="#DejaVuSans-69"/>
     <use x="63.183594" xlink:href="#DejaVuSans-83"/>
    </g>
   </g>
   <g id="line2d_29">
    <path d="M 359.273168 194.947969 
L 380.723168 194.947969 
" style="fill:none;stroke:#55a868;stroke-linecap:round;stroke-width:2.25;"/>
   </g>
   <g id="line2d_30"/>
   <g id="text_18">
    <!-- GA -->
    <defs>
     <path d="M 59.515625 10.40625 
L 59.515625 29.984375 
L 43.40625 29.984375 
L 43.40625 38.09375 
L 69.28125 38.09375 
L 69.28125 6.78125 
Q 63.578125 2.734375 56.6875 0.65625 
Q 49.8125 -1.421875 42 -1.421875 
Q 24.90625 -1.421875 15.25 8.5625 
Q 5.609375 18.5625 5.609375 36.375 
Q 5.609375 54.25 15.25 64.234375 
Q 24.90625 74.21875 42 74.21875 
Q 49.125 74.21875 55.546875 72.453125 
Q 61.96875 70.703125 67.390625 67.28125 
L 67.390625 56.78125 
Q 61.921875 61.421875 55.765625 63.765625 
Q 49.609375 66.109375 42.828125 66.109375 
Q 29.4375 66.109375 22.71875 58.640625 
Q 16.015625 51.171875 16.015625 36.375 
Q 16.015625 21.625 22.71875 14.15625 
Q 29.4375 6.6875 42.828125 6.6875 
Q 48.046875 6.6875 52.140625 7.59375 
Q 56.25 8.5 59.515625 10.40625 
z
" id="DejaVuSans-71"/>
     <path d="M 34.1875 63.1875 
L 20.796875 26.90625 
L 47.609375 26.90625 
z
M 28.609375 72.90625 
L 39.796875 72.90625 
L 67.578125 0 
L 57.328125 0 
L 50.6875 18.703125 
L 17.828125 18.703125 
L 11.1875 0 
L 0.78125 0 
z
" id="DejaVuSans-65"/>
    </defs>
    <g style="fill:#262626;" transform="translate(389.303168 198.701719)scale(0.10725 -0.10725)">
     <use xlink:href="#DejaVuSans-71"/>
     <use x="77.490234" xlink:href="#DejaVuSans-65"/>
    </g>
   </g>
   <g id="line2d_31">
    <path d="M 359.273168 210.690258 
L 380.723168 210.690258 
" style="fill:none;stroke:#c44e52;stroke-linecap:round;stroke-width:2.25;"/>
   </g>
   <g id="line2d_32"/>
   <g id="text_19">
    <!-- SA -->
    <g style="fill:#262626;" transform="translate(389.303168 214.444008)scale(0.10725 -0.10725)">
     <use xlink:href="#DejaVuSans-83"/>
     <use x="63.492188" xlink:href="#DejaVuSans-65"/>
    </g>
   </g>
  </g>
 </g>
 <defs>
  <clipPath id="pb989c8fd6a">
   <rect height="296.628" width="258.26301" x="97.02549" y="12.636"/>
  </clipPath>
 </defs>
</svg>
