<?xml version="1.0" encoding="utf-8" standalone="no"?>
<!DOCTYPE svg PUBLIC "-//W3C//DTD SVG 1.1//EN"
  "http://www.w3.org/Graphics/SVG/1.1/DTD/svg11.dtd">
<!-- Created with matplotlib (https://matplotlib.org/) -->
<svg height="720pt" version="1.1" viewBox="0 0 880.83 720" width="880.83pt" xmlns="http://www.w3.org/2000/svg" xmlns:xlink="http://www.w3.org/1999/xlink">
 <defs>
  <style type="text/css">
*{stroke-linecap:butt;stroke-linejoin:round;}
  </style>
 </defs>
 <g id="figure_1">
  <g id="patch_1">
   <path d="M 0 720 
L 880.83 720 
L 880.83 0 
L 0 0 
z
" style="fill:#ffffff;"/>
  </g>
  <g id="axes_1">
   <g id="patch_2">
    <path d="M 112.188381 329.448 
L 403.600482 329.448 
L 403.600482 34.044 
L 112.188381 34.044 
z
" style="fill:#eaeaf2;"/>
   </g>
   <g id="matplotlib.axis_1">
    <g id="xtick_1">
     <g id="line2d_1">
      <path clip-path="url(#paa1283865d)" d="M 122.317679 329.448 
L 122.317679 34.044 
" style="fill:none;stroke:#ffffff;stroke-linecap:round;stroke-width:1.5;"/>
     </g>
    </g>
    <g id="xtick_2">
     <g id="line2d_2">
      <path clip-path="url(#paa1283865d)" d="M 184.651818 329.448 
L 184.651818 34.044 
" style="fill:none;stroke:#ffffff;stroke-linecap:round;stroke-width:1.5;"/>
     </g>
    </g>
    <g id="xtick_3">
     <g id="line2d_3">
      <path clip-path="url(#paa1283865d)" d="M 246.985957 329.448 
L 246.985957 34.044 
" style="fill:none;stroke:#ffffff;stroke-linecap:round;stroke-width:1.5;"/>
     </g>
    </g>
    <g id="xtick_4">
     <g id="line2d_4">
      <path clip-path="url(#paa1283865d)" d="M 309.320096 329.448 
L 309.320096 34.044 
" style="fill:none;stroke:#ffffff;stroke-linecap:round;stroke-width:1.5;"/>
     </g>
    </g>
    <g id="xtick_5">
     <g id="line2d_5">
      <path clip-path="url(#paa1283865d)" d="M 371.654236 329.448 
L 371.654236 34.044 
" style="fill:none;stroke:#ffffff;stroke-linecap:round;stroke-width:1.5;"/>
     </g>
    </g>
   </g>
   <g id="matplotlib.axis_2">
    <g id="ytick_1">
     <g id="line2d_6">
      <path clip-path="url(#paa1283865d)" d="M 112.188381 311.564635 
L 403.600482 311.564635 
" style="fill:none;stroke:#ffffff;stroke-linecap:round;stroke-width:1.5;"/>
     </g>
     <g id="text_1">
      <!-- 20000 -->
      <defs>
       <path d="M 19.1875 8.296875 
L 53.609375 8.296875 
L 53.609375 0 
L 7.328125 0 
L 7.328125 8.296875 
Q 12.9375 14.109375 22.625 23.890625 
Q 32.328125 33.6875 34.8125 36.53125 
Q 39.546875 41.84375 41.421875 45.53125 
Q 43.3125 49.21875 43.3125 52.78125 
Q 43.3125 58.59375 39.234375 62.25 
Q 35.15625 65.921875 28.609375 65.921875 
Q 23.96875 65.921875 18.8125 64.3125 
Q 13.671875 62.703125 7.8125 59.421875 
L 7.8125 69.390625 
Q 13.765625 71.78125 18.9375 73 
Q 24.125 74.21875 28.421875 74.21875 
Q 39.75 74.21875 46.484375 68.546875 
Q 53.21875 62.890625 53.21875 53.421875 
Q 53.21875 48.921875 51.53125 44.890625 
Q 49.859375 40.875 45.40625 35.40625 
Q 44.1875 33.984375 37.640625 27.21875 
Q 31.109375 20.453125 19.1875 8.296875 
z
" id="DejaVuSans-50"/>
       <path d="M 31.78125 66.40625 
Q 24.171875 66.40625 20.328125 58.90625 
Q 16.5 51.421875 16.5 36.375 
Q 16.5 21.390625 20.328125 13.890625 
Q 24.171875 6.390625 31.78125 6.390625 
Q 39.453125 6.390625 43.28125 13.890625 
Q 47.125 21.390625 47.125 36.375 
Q 47.125 51.421875 43.28125 58.90625 
Q 39.453125 66.40625 31.78125 66.40625 
z
M 31.78125 74.21875 
Q 44.046875 74.21875 50.515625 64.515625 
Q 56.984375 54.828125 56.984375 36.375 
Q 56.984375 17.96875 50.515625 8.265625 
Q 44.046875 -1.421875 31.78125 -1.421875 
Q 19.53125 -1.421875 13.0625 8.265625 
Q 6.59375 17.96875 6.59375 36.375 
Q 6.59375 54.828125 13.0625 64.515625 
Q 19.53125 74.21875 31.78125 74.21875 
z
" id="DejaVuSans-48"/>
      </defs>
      <g style="fill:#262626;" transform="translate(55.07135 316.89304)scale(0.14025 -0.14025)">
       <use xlink:href="#DejaVuSans-50"/>
       <use x="63.623047" xlink:href="#DejaVuSans-48"/>
       <use x="127.246094" xlink:href="#DejaVuSans-48"/>
       <use x="190.869141" xlink:href="#DejaVuSans-48"/>
       <use x="254.492188" xlink:href="#DejaVuSans-48"/>
      </g>
     </g>
    </g>
    <g id="ytick_2">
     <g id="line2d_7">
      <path clip-path="url(#paa1283865d)" d="M 112.188381 267.28244 
L 403.600482 267.28244 
" style="fill:none;stroke:#ffffff;stroke-linecap:round;stroke-width:1.5;"/>
     </g>
     <g id="text_2">
      <!-- 30000 -->
      <defs>
       <path d="M 40.578125 39.3125 
Q 47.65625 37.796875 51.625 33 
Q 55.609375 28.21875 55.609375 21.1875 
Q 55.609375 10.40625 48.1875 4.484375 
Q 40.765625 -1.421875 27.09375 -1.421875 
Q 22.515625 -1.421875 17.65625 -0.515625 
Q 12.796875 0.390625 7.625 2.203125 
L 7.625 11.71875 
Q 11.71875 9.328125 16.59375 8.109375 
Q 21.484375 6.890625 26.8125 6.890625 
Q 36.078125 6.890625 40.9375 10.546875 
Q 45.796875 14.203125 45.796875 21.1875 
Q 45.796875 27.640625 41.28125 31.265625 
Q 36.765625 34.90625 28.71875 34.90625 
L 20.21875 34.90625 
L 20.21875 43.015625 
L 29.109375 43.015625 
Q 36.375 43.015625 40.234375 45.921875 
Q 44.09375 48.828125 44.09375 54.296875 
Q 44.09375 59.90625 40.109375 62.90625 
Q 36.140625 65.921875 28.71875 65.921875 
Q 24.65625 65.921875 20.015625 65.03125 
Q 15.375 64.15625 9.8125 62.3125 
L 9.8125 71.09375 
Q 15.4375 72.65625 20.34375 73.4375 
Q 25.25 74.21875 29.59375 74.21875 
Q 40.828125 74.21875 47.359375 69.109375 
Q 53.90625 64.015625 53.90625 55.328125 
Q 53.90625 49.265625 50.4375 45.09375 
Q 46.96875 40.921875 40.578125 39.3125 
z
" id="DejaVuSans-51"/>
      </defs>
      <g style="fill:#262626;" transform="translate(55.07135 272.610844)scale(0.14025 -0.14025)">
       <use xlink:href="#DejaVuSans-51"/>
       <use x="63.623047" xlink:href="#DejaVuSans-48"/>
       <use x="127.246094" xlink:href="#DejaVuSans-48"/>
       <use x="190.869141" xlink:href="#DejaVuSans-48"/>
       <use x="254.492188" xlink:href="#DejaVuSans-48"/>
      </g>
     </g>
    </g>
    <g id="ytick_3">
     <g id="line2d_8">
      <path clip-path="url(#paa1283865d)" d="M 112.188381 223.000244 
L 403.600482 223.000244 
" style="fill:none;stroke:#ffffff;stroke-linecap:round;stroke-width:1.5;"/>
     </g>
     <g id="text_3">
      <!-- 40000 -->
      <defs>
       <path d="M 37.796875 64.3125 
L 12.890625 25.390625 
L 37.796875 25.390625 
z
M 35.203125 72.90625 
L 47.609375 72.90625 
L 47.609375 25.390625 
L 58.015625 25.390625 
L 58.015625 17.1875 
L 47.609375 17.1875 
L 47.609375 0 
L 37.796875 0 
L 37.796875 17.1875 
L 4.890625 17.1875 
L 4.890625 26.703125 
z
" id="DejaVuSans-52"/>
      </defs>
      <g style="fill:#262626;" transform="translate(55.07135 228.328648)scale(0.14025 -0.14025)">
       <use xlink:href="#DejaVuSans-52"/>
       <use x="63.623047" xlink:href="#DejaVuSans-48"/>
       <use x="127.246094" xlink:href="#DejaVuSans-48"/>
       <use x="190.869141" xlink:href="#DejaVuSans-48"/>
       <use x="254.492188" xlink:href="#DejaVuSans-48"/>
      </g>
     </g>
    </g>
    <g id="ytick_4">
     <g id="line2d_9">
      <path clip-path="url(#paa1283865d)" d="M 112.188381 178.718048 
L 403.600482 178.718048 
" style="fill:none;stroke:#ffffff;stroke-linecap:round;stroke-width:1.5;"/>
     </g>
     <g id="text_4">
      <!-- 50000 -->
      <defs>
       <path d="M 10.796875 72.90625 
L 49.515625 72.90625 
L 49.515625 64.59375 
L 19.828125 64.59375 
L 19.828125 46.734375 
Q 21.96875 47.46875 24.109375 47.828125 
Q 26.265625 48.1875 28.421875 48.1875 
Q 40.625 48.1875 47.75 41.5 
Q 54.890625 34.8125 54.890625 23.390625 
Q 54.890625 11.625 47.5625 5.09375 
Q 40.234375 -1.421875 26.90625 -1.421875 
Q 22.3125 -1.421875 17.546875 -0.640625 
Q 12.796875 0.140625 7.71875 1.703125 
L 7.71875 11.625 
Q 12.109375 9.234375 16.796875 8.0625 
Q 21.484375 6.890625 26.703125 6.890625 
Q 35.15625 6.890625 40.078125 11.328125 
Q 45.015625 15.765625 45.015625 23.390625 
Q 45.015625 31 40.078125 35.4375 
Q 35.15625 39.890625 26.703125 39.890625 
Q 22.75 39.890625 18.8125 39.015625 
Q 14.890625 38.140625 10.796875 36.28125 
z
" id="DejaVuSans-53"/>
      </defs>
      <g style="fill:#262626;" transform="translate(55.07135 184.046453)scale(0.14025 -0.14025)">
       <use xlink:href="#DejaVuSans-53"/>
       <use x="63.623047" xlink:href="#DejaVuSans-48"/>
       <use x="127.246094" xlink:href="#DejaVuSans-48"/>
       <use x="190.869141" xlink:href="#DejaVuSans-48"/>
       <use x="254.492188" xlink:href="#DejaVuSans-48"/>
      </g>
     </g>
    </g>
    <g id="ytick_5">
     <g id="line2d_10">
      <path clip-path="url(#paa1283865d)" d="M 112.188381 134.435853 
L 403.600482 134.435853 
" style="fill:none;stroke:#ffffff;stroke-linecap:round;stroke-width:1.5;"/>
     </g>
     <g id="text_5">
      <!-- 60000 -->
      <defs>
       <path d="M 33.015625 40.375 
Q 26.375 40.375 22.484375 35.828125 
Q 18.609375 31.296875 18.609375 23.390625 
Q 18.609375 15.53125 22.484375 10.953125 
Q 26.375 6.390625 33.015625 6.390625 
Q 39.65625 6.390625 43.53125 10.953125 
Q 47.40625 15.53125 47.40625 23.390625 
Q 47.40625 31.296875 43.53125 35.828125 
Q 39.65625 40.375 33.015625 40.375 
z
M 52.59375 71.296875 
L 52.59375 62.3125 
Q 48.875 64.0625 45.09375 64.984375 
Q 41.3125 65.921875 37.59375 65.921875 
Q 27.828125 65.921875 22.671875 59.328125 
Q 17.53125 52.734375 16.796875 39.40625 
Q 19.671875 43.65625 24.015625 45.921875 
Q 28.375 48.1875 33.59375 48.1875 
Q 44.578125 48.1875 50.953125 41.515625 
Q 57.328125 34.859375 57.328125 23.390625 
Q 57.328125 12.15625 50.6875 5.359375 
Q 44.046875 -1.421875 33.015625 -1.421875 
Q 20.359375 -1.421875 13.671875 8.265625 
Q 6.984375 17.96875 6.984375 36.375 
Q 6.984375 53.65625 15.1875 63.9375 
Q 23.390625 74.21875 37.203125 74.21875 
Q 40.921875 74.21875 44.703125 73.484375 
Q 48.484375 72.75 52.59375 71.296875 
z
" id="DejaVuSans-54"/>
      </defs>
      <g style="fill:#262626;" transform="translate(55.07135 139.764257)scale(0.14025 -0.14025)">
       <use xlink:href="#DejaVuSans-54"/>
       <use x="63.623047" xlink:href="#DejaVuSans-48"/>
       <use x="127.246094" xlink:href="#DejaVuSans-48"/>
       <use x="190.869141" xlink:href="#DejaVuSans-48"/>
       <use x="254.492188" xlink:href="#DejaVuSans-48"/>
      </g>
     </g>
    </g>
    <g id="ytick_6">
     <g id="line2d_11">
      <path clip-path="url(#paa1283865d)" d="M 112.188381 90.153657 
L 403.600482 90.153657 
" style="fill:none;stroke:#ffffff;stroke-linecap:round;stroke-width:1.5;"/>
     </g>
     <g id="text_6">
      <!-- 70000 -->
      <defs>
       <path d="M 8.203125 72.90625 
L 55.078125 72.90625 
L 55.078125 68.703125 
L 28.609375 0 
L 18.3125 0 
L 43.21875 64.59375 
L 8.203125 64.59375 
z
" id="DejaVuSans-55"/>
      </defs>
      <g style="fill:#262626;" transform="translate(55.07135 95.482061)scale(0.14025 -0.14025)">
       <use xlink:href="#DejaVuSans-55"/>
       <use x="63.623047" xlink:href="#DejaVuSans-48"/>
       <use x="127.246094" xlink:href="#DejaVuSans-48"/>
       <use x="190.869141" xlink:href="#DejaVuSans-48"/>
       <use x="254.492188" xlink:href="#DejaVuSans-48"/>
      </g>
     </g>
    </g>
    <g id="ytick_7">
     <g id="line2d_12">
      <path clip-path="url(#paa1283865d)" d="M 112.188381 45.871462 
L 403.600482 45.871462 
" style="fill:none;stroke:#ffffff;stroke-linecap:round;stroke-width:1.5;"/>
     </g>
     <g id="text_7">
      <!-- 80000 -->
      <defs>
       <path d="M 31.78125 34.625 
Q 24.75 34.625 20.71875 30.859375 
Q 16.703125 27.09375 16.703125 20.515625 
Q 16.703125 13.921875 20.71875 10.15625 
Q 24.75 6.390625 31.78125 6.390625 
Q 38.8125 6.390625 42.859375 10.171875 
Q 46.921875 13.96875 46.921875 20.515625 
Q 46.921875 27.09375 42.890625 30.859375 
Q 38.875 34.625 31.78125 34.625 
z
M 21.921875 38.8125 
Q 15.578125 40.375 12.03125 44.71875 
Q 8.5 49.078125 8.5 55.328125 
Q 8.5 64.0625 14.71875 69.140625 
Q 20.953125 74.21875 31.78125 74.21875 
Q 42.671875 74.21875 48.875 69.140625 
Q 55.078125 64.0625 55.078125 55.328125 
Q 55.078125 49.078125 51.53125 44.71875 
Q 48 40.375 41.703125 38.8125 
Q 48.828125 37.15625 52.796875 32.3125 
Q 56.78125 27.484375 56.78125 20.515625 
Q 56.78125 9.90625 50.3125 4.234375 
Q 43.84375 -1.421875 31.78125 -1.421875 
Q 19.734375 -1.421875 13.25 4.234375 
Q 6.78125 9.90625 6.78125 20.515625 
Q 6.78125 27.484375 10.78125 32.3125 
Q 14.796875 37.15625 21.921875 38.8125 
z
M 18.3125 54.390625 
Q 18.3125 48.734375 21.84375 45.5625 
Q 25.390625 42.390625 31.78125 42.390625 
Q 38.140625 42.390625 41.71875 45.5625 
Q 45.3125 48.734375 45.3125 54.390625 
Q 45.3125 60.0625 41.71875 63.234375 
Q 38.140625 66.40625 31.78125 66.40625 
Q 25.390625 66.40625 21.84375 63.234375 
Q 18.3125 60.0625 18.3125 54.390625 
z
" id="DejaVuSans-56"/>
      </defs>
      <g style="fill:#262626;" transform="translate(55.07135 51.199866)scale(0.14025 -0.14025)">
       <use xlink:href="#DejaVuSans-56"/>
       <use x="63.623047" xlink:href="#DejaVuSans-48"/>
       <use x="127.246094" xlink:href="#DejaVuSans-48"/>
       <use x="190.869141" xlink:href="#DejaVuSans-48"/>
       <use x="254.492188" xlink:href="#DejaVuSans-48"/>
      </g>
     </g>
    </g>
    <g id="text_8">
     <!-- objective -->
     <defs>
      <path d="M 30.609375 48.390625 
Q 23.390625 48.390625 19.1875 42.75 
Q 14.984375 37.109375 14.984375 27.296875 
Q 14.984375 17.484375 19.15625 11.84375 
Q 23.34375 6.203125 30.609375 6.203125 
Q 37.796875 6.203125 41.984375 11.859375 
Q 46.1875 17.53125 46.1875 27.296875 
Q 46.1875 37.015625 41.984375 42.703125 
Q 37.796875 48.390625 30.609375 48.390625 
z
M 30.609375 56 
Q 42.328125 56 49.015625 48.375 
Q 55.71875 40.765625 55.71875 27.296875 
Q 55.71875 13.875 49.015625 6.21875 
Q 42.328125 -1.421875 30.609375 -1.421875 
Q 18.84375 -1.421875 12.171875 6.21875 
Q 5.515625 13.875 5.515625 27.296875 
Q 5.515625 40.765625 12.171875 48.375 
Q 18.84375 56 30.609375 56 
z
" id="DejaVuSans-111"/>
      <path d="M 48.6875 27.296875 
Q 48.6875 37.203125 44.609375 42.84375 
Q 40.53125 48.484375 33.40625 48.484375 
Q 26.265625 48.484375 22.1875 42.84375 
Q 18.109375 37.203125 18.109375 27.296875 
Q 18.109375 17.390625 22.1875 11.75 
Q 26.265625 6.109375 33.40625 6.109375 
Q 40.53125 6.109375 44.609375 11.75 
Q 48.6875 17.390625 48.6875 27.296875 
z
M 18.109375 46.390625 
Q 20.953125 51.265625 25.265625 53.625 
Q 29.59375 56 35.59375 56 
Q 45.5625 56 51.78125 48.09375 
Q 58.015625 40.1875 58.015625 27.296875 
Q 58.015625 14.40625 51.78125 6.484375 
Q 45.5625 -1.421875 35.59375 -1.421875 
Q 29.59375 -1.421875 25.265625 0.953125 
Q 20.953125 3.328125 18.109375 8.203125 
L 18.109375 0 
L 9.078125 0 
L 9.078125 75.984375 
L 18.109375 75.984375 
z
" id="DejaVuSans-98"/>
      <path d="M 9.421875 54.6875 
L 18.40625 54.6875 
L 18.40625 -0.984375 
Q 18.40625 -11.421875 14.421875 -16.109375 
Q 10.453125 -20.796875 1.609375 -20.796875 
L -1.8125 -20.796875 
L -1.8125 -13.1875 
L 0.59375 -13.1875 
Q 5.71875 -13.1875 7.5625 -10.8125 
Q 9.421875 -8.453125 9.421875 -0.984375 
z
M 9.421875 75.984375 
L 18.40625 75.984375 
L 18.40625 64.59375 
L 9.421875 64.59375 
z
" id="DejaVuSans-106"/>
      <path d="M 56.203125 29.59375 
L 56.203125 25.203125 
L 14.890625 25.203125 
Q 15.484375 15.921875 20.484375 11.0625 
Q 25.484375 6.203125 34.421875 6.203125 
Q 39.59375 6.203125 44.453125 7.46875 
Q 49.3125 8.734375 54.109375 11.28125 
L 54.109375 2.78125 
Q 49.265625 0.734375 44.1875 -0.34375 
Q 39.109375 -1.421875 33.890625 -1.421875 
Q 20.796875 -1.421875 13.15625 6.1875 
Q 5.515625 13.8125 5.515625 26.8125 
Q 5.515625 40.234375 12.765625 48.109375 
Q 20.015625 56 32.328125 56 
Q 43.359375 56 49.78125 48.890625 
Q 56.203125 41.796875 56.203125 29.59375 
z
M 47.21875 32.234375 
Q 47.125 39.59375 43.09375 43.984375 
Q 39.0625 48.390625 32.421875 48.390625 
Q 24.90625 48.390625 20.390625 44.140625 
Q 15.875 39.890625 15.1875 32.171875 
z
" id="DejaVuSans-101"/>
      <path d="M 48.78125 52.59375 
L 48.78125 44.1875 
Q 44.96875 46.296875 41.140625 47.34375 
Q 37.3125 48.390625 33.40625 48.390625 
Q 24.65625 48.390625 19.8125 42.84375 
Q 14.984375 37.3125 14.984375 27.296875 
Q 14.984375 17.28125 19.8125 11.734375 
Q 24.65625 6.203125 33.40625 6.203125 
Q 37.3125 6.203125 41.140625 7.25 
Q 44.96875 8.296875 48.78125 10.40625 
L 48.78125 2.09375 
Q 45.015625 0.34375 40.984375 -0.53125 
Q 36.96875 -1.421875 32.421875 -1.421875 
Q 20.0625 -1.421875 12.78125 6.34375 
Q 5.515625 14.109375 5.515625 27.296875 
Q 5.515625 40.671875 12.859375 48.328125 
Q 20.21875 56 33.015625 56 
Q 37.15625 56 41.109375 55.140625 
Q 45.0625 54.296875 48.78125 52.59375 
z
" id="DejaVuSans-99"/>
      <path d="M 18.3125 70.21875 
L 18.3125 54.6875 
L 36.8125 54.6875 
L 36.8125 47.703125 
L 18.3125 47.703125 
L 18.3125 18.015625 
Q 18.3125 11.328125 20.140625 9.421875 
Q 21.96875 7.515625 27.59375 7.515625 
L 36.8125 7.515625 
L 36.8125 0 
L 27.59375 0 
Q 17.1875 0 13.234375 3.875 
Q 9.28125 7.765625 9.28125 18.015625 
L 9.28125 47.703125 
L 2.6875 47.703125 
L 2.6875 54.6875 
L 9.28125 54.6875 
L 9.28125 70.21875 
z
" id="DejaVuSans-116"/>
      <path d="M 9.421875 54.6875 
L 18.40625 54.6875 
L 18.40625 0 
L 9.421875 0 
z
M 9.421875 75.984375 
L 18.40625 75.984375 
L 18.40625 64.59375 
L 9.421875 64.59375 
z
" id="DejaVuSans-105"/>
      <path d="M 2.984375 54.6875 
L 12.5 54.6875 
L 29.59375 8.796875 
L 46.6875 54.6875 
L 56.203125 54.6875 
L 35.6875 0 
L 23.484375 0 
z
" id="DejaVuSans-118"/>
     </defs>
     <g style="fill:#262626;" transform="translate(47.889428 216.681398)rotate(-90)scale(0.153 -0.153)">
      <use xlink:href="#DejaVuSans-111"/>
      <use x="61.181641" xlink:href="#DejaVuSans-98"/>
      <use x="124.658203" xlink:href="#DejaVuSans-106"/>
      <use x="152.441406" xlink:href="#DejaVuSans-101"/>
      <use x="213.964844" xlink:href="#DejaVuSans-99"/>
      <use x="268.945312" xlink:href="#DejaVuSans-116"/>
      <use x="308.154297" xlink:href="#DejaVuSans-105"/>
      <use x="335.9375" xlink:href="#DejaVuSans-118"/>
      <use x="395.117188" xlink:href="#DejaVuSans-101"/>
     </g>
    </g>
   </g>
   <g id="PolyCollection_1">
    <defs>
     <path d="M 125.434386 -626.713038 
L 125.434386 -592.515382 
L 128.551093 -537.209701 
L 131.6678 -542.701177 
L 134.784506 -551.563184 
L 137.901213 -527.35904 
L 141.01792 -526.151005 
L 144.134627 -519.580525 
L 147.251334 -518.401238 
L 150.368041 -514.872862 
L 153.484748 -510.837064 
L 156.601455 -506.599872 
L 159.718162 -505.504271 
L 162.834869 -502.509878 
L 165.951576 -501.130553 
L 169.068283 -500.720754 
L 172.18499 -497.947592 
L 175.301697 -496.678915 
L 178.418404 -497.769899 
L 181.535111 -495.462065 
L 184.651818 -494.266138 
L 187.768525 -494.580856 
L 190.885232 -493.295426 
L 194.001939 -492.600817 
L 197.118646 -493.223092 
L 200.235353 -491.876768 
L 203.35206 -490.697688 
L 206.468767 -491.227831 
L 209.585474 -491.064296 
L 212.702181 -490.266396 
L 215.818887 -490.209471 
L 218.935594 -489.767758 
L 222.052301 -489.88282 
L 225.169008 -489.341828 
L 228.285715 -489.379767 
L 231.402422 -489.665706 
L 234.519129 -487.996987 
L 237.635836 -488.740503 
L 240.752543 -489.021676 
L 243.86925 -486.930153 
L 246.985957 -486.709252 
L 250.102664 -487.297402 
L 253.219371 -485.958816 
L 256.336078 -486.240911 
L 259.452785 -486.083784 
L 262.569492 -485.953926 
L 265.686199 -485.669437 
L 268.802906 -485.607017 
L 271.919613 -485.681454 
L 275.03632 -485.664724 
L 278.153027 -485.44811 
L 281.269734 -485.271861 
L 284.386441 -485.498441 
L 287.503148 -485.391928 
L 290.619855 -485.138844 
L 293.736562 -485.271861 
L 296.853268 -485.107709 
L 299.969975 -485.138844 
L 303.086682 -485.138844 
L 306.203389 -485.072076 
L 309.320096 -485.070578 
L 312.436803 -485.072076 
L 315.55351 -485.072076 
L 318.670217 -485.034974 
L 321.786924 -485.034974 
L 324.903631 -485.034974 
L 328.020338 -485.034974 
L 331.137045 -485.034974 
L 334.253752 -485.034974 
L 337.370459 -485.034974 
L 340.487166 -485.034974 
L 343.603873 -485.034974 
L 346.72058 -485.034974 
L 349.837287 -485.034974 
L 352.953994 -485.034974 
L 356.070701 -485.034974 
L 359.187408 -485.034974 
L 362.304115 -485.034974 
L 365.420822 -485.034974 
L 368.537529 -485.034974 
L 371.654236 -485.034974 
L 374.770943 -485.034974 
L 377.88765 -485.034974 
L 381.004356 -485.034974 
L 384.121063 -485.034974 
L 387.23777 -485.034974 
L 390.354477 -485.034974 
L 390.354477 -522.101858 
L 390.354477 -522.101858 
L 387.23777 -522.101858 
L 384.121063 -522.101858 
L 381.004356 -522.101858 
L 377.88765 -522.101858 
L 374.770943 -522.101858 
L 371.654236 -522.101858 
L 368.537529 -522.101858 
L 365.420822 -522.101858 
L 362.304115 -522.101858 
L 359.187408 -522.101858 
L 356.070701 -522.101858 
L 352.953994 -522.101858 
L 349.837287 -522.101858 
L 346.72058 -522.101858 
L 343.603873 -522.101858 
L 340.487166 -522.101858 
L 337.370459 -522.101858 
L 334.253752 -522.101858 
L 331.137045 -522.101858 
L 328.020338 -522.101858 
L 324.903631 -522.101858 
L 321.786924 -522.101858 
L 318.670217 -522.101858 
L 315.55351 -522.095351 
L 312.436803 -522.095351 
L 309.320096 -522.158844 
L 306.203389 -522.095351 
L 303.086682 -522.204906 
L 299.969975 -522.204906 
L 296.853268 -522.152308 
L 293.736562 -522.182192 
L 290.619855 -522.204906 
L 287.503148 -522.162767 
L 284.386441 -522.146428 
L 281.269734 -522.182192 
L 278.153027 -522.26439 
L 275.03632 -522.324741 
L 271.919613 -522.120416 
L 268.802906 -522.343802 
L 265.686199 -522.33452 
L 262.569492 -522.376109 
L 259.452785 -522.283288 
L 256.336078 -522.264643 
L 253.219371 -522.388128 
L 250.102664 -522.399746 
L 246.985957 -522.33574 
L 243.86925 -522.572153 
L 240.752543 -522.950772 
L 237.635836 -522.777045 
L 234.519129 -523.007694 
L 231.402422 -523.241498 
L 228.285715 -523.133729 
L 225.169008 -523.420453 
L 222.052301 -523.451909 
L 218.935594 -523.847156 
L 215.818887 -523.63571 
L 212.702181 -524.190685 
L 209.585474 -524.381485 
L 206.468767 -524.543224 
L 203.35206 -525.144218 
L 200.235353 -525.324199 
L 197.118646 -525.435967 
L 194.001939 -526.450341 
L 190.885232 -526.830582 
L 187.768525 -526.067681 
L 184.651818 -527.903291 
L 181.535111 -528.400554 
L 178.418404 -528.552395 
L 175.301697 -529.491209 
L 172.18499 -530.284472 
L 169.068283 -532.727753 
L 165.951576 -533.300214 
L 162.834869 -536.011758 
L 159.718162 -541.546117 
L 156.601455 -538.986788 
L 153.484748 -542.543262 
L 150.368041 -552.096462 
L 147.251334 -548.221075 
L 144.134627 -554.90389 
L 141.01792 -564.663074 
L 137.901213 -570.288989 
L 134.784506 -588.811528 
L 131.6678 -589.728504 
L 128.551093 -599.086219 
L 125.434386 -626.713038 
z
" id="m55a035c307" style="stroke:#4c72b0;stroke-opacity:0.2;stroke-width:1.5;"/>
    </defs>
    <g clip-path="url(#paa1283865d)">
     <use style="fill:#4c72b0;fill-opacity:0.2;stroke:#4c72b0;stroke-opacity:0.2;stroke-width:1.5;" x="0" xlink:href="#m55a035c307" y="720"/>
    </g>
   </g>
   <g id="line2d_13">
    <path clip-path="url(#paa1283865d)" d="M 125.434386 110.38579 
L 128.551093 151.85204 
L 131.6678 153.785159 
L 134.784506 149.812644 
L 137.901213 171.175985 
L 141.01792 174.592961 
L 144.134627 182.757792 
L 147.251334 186.688844 
L 150.368041 186.515338 
L 153.484748 193.309837 
L 156.601455 197.20667 
L 159.718162 196.474806 
L 162.834869 200.739182 
L 165.951576 202.784617 
L 169.068283 203.275746 
L 172.18499 205.883968 
L 175.301697 206.914938 
L 178.418404 206.838853 
L 181.535111 208.06869 
L 184.651818 208.915285 
L 187.768525 209.675731 
L 190.885232 209.936996 
L 194.001939 210.474421 
L 197.118646 210.670471 
L 200.235353 211.399516 
L 203.35206 212.079047 
L 206.468767 212.114473 
L 209.585474 212.277109 
L 212.702181 212.771459 
L 215.818887 213.077409 
L 218.935594 213.192543 
L 222.052301 213.332636 
L 225.169008 213.61886 
L 228.285715 213.743252 
L 231.402422 213.546398 
L 234.519129 214.49766 
L 237.635836 214.241226 
L 240.752543 214.013776 
L 243.86925 215.248847 
L 246.985957 215.477504 
L 250.102664 215.151426 
L 253.219371 215.826528 
L 256.336078 215.747223 
L 259.452785 215.816464 
L 262.569492 215.834982 
L 265.686199 215.998021 
L 268.802906 216.024591 
L 271.919613 216.099065 
L 275.03632 216.005267 
L 278.153027 216.14375 
L 281.269734 216.272973 
L 284.386441 216.177565 
L 287.503148 216.222653 
L 290.619855 216.328125 
L 293.736562 216.272973 
L 296.853268 216.369992 
L 299.969975 216.328125 
L 303.086682 216.328125 
L 306.203389 216.416287 
L 309.320096 216.385289 
L 312.436803 216.416287 
L 315.55351 216.416287 
L 318.670217 216.431584 
L 321.786924 216.431584 
L 324.903631 216.431584 
L 328.020338 216.431584 
L 331.137045 216.431584 
L 334.253752 216.431584 
L 337.370459 216.431584 
L 340.487166 216.431584 
L 343.603873 216.431584 
L 346.72058 216.431584 
L 349.837287 216.431584 
L 352.953994 216.431584 
L 356.070701 216.431584 
L 359.187408 216.431584 
L 362.304115 216.431584 
L 365.420822 216.431584 
L 368.537529 216.431584 
L 371.654236 216.431584 
L 374.770943 216.431584 
L 377.88765 216.431584 
L 381.004356 216.431584 
L 384.121063 216.431584 
L 387.23777 216.431584 
L 390.354477 216.431584 
" style="fill:none;stroke:#4c72b0;stroke-linecap:round;stroke-width:2.25;"/>
   </g>
   <g id="line2d_14">
    <path clip-path="url(#paa1283865d)" d="M 112.188381 305.887658 
L 403.600482 305.887658 
" style="fill:none;stroke:#008000;stroke-dasharray:8.325,3.6;stroke-dashoffset:0;stroke-width:2.25;"/>
   </g>
   <g id="patch_3">
    <path d="M 112.188381 329.448 
L 112.188381 34.044 
" style="fill:none;stroke:#ffffff;stroke-linecap:square;stroke-linejoin:miter;stroke-width:1.875;"/>
   </g>
   <g id="patch_4">
    <path d="M 112.188381 329.448 
L 403.600482 329.448 
" style="fill:none;stroke:#ffffff;stroke-linecap:square;stroke-linejoin:miter;stroke-width:1.875;"/>
   </g>
   <g id="text_9">
    <!-- MH = combinations -->
    <defs>
     <path d="M 9.8125 72.90625 
L 24.515625 72.90625 
L 43.109375 23.296875 
L 61.8125 72.90625 
L 76.515625 72.90625 
L 76.515625 0 
L 66.890625 0 
L 66.890625 64.015625 
L 48.09375 14.015625 
L 38.1875 14.015625 
L 19.390625 64.015625 
L 19.390625 0 
L 9.8125 0 
z
" id="DejaVuSans-77"/>
     <path d="M 9.8125 72.90625 
L 19.671875 72.90625 
L 19.671875 43.015625 
L 55.515625 43.015625 
L 55.515625 72.90625 
L 65.375 72.90625 
L 65.375 0 
L 55.515625 0 
L 55.515625 34.71875 
L 19.671875 34.71875 
L 19.671875 0 
L 9.8125 0 
z
" id="DejaVuSans-72"/>
     <path id="DejaVuSans-32"/>
     <path d="M 10.59375 45.40625 
L 73.1875 45.40625 
L 73.1875 37.203125 
L 10.59375 37.203125 
z
M 10.59375 25.484375 
L 73.1875 25.484375 
L 73.1875 17.1875 
L 10.59375 17.1875 
z
" id="DejaVuSans-61"/>
     <path d="M 52 44.1875 
Q 55.375 50.25 60.0625 53.125 
Q 64.75 56 71.09375 56 
Q 79.640625 56 84.28125 50.015625 
Q 88.921875 44.046875 88.921875 33.015625 
L 88.921875 0 
L 79.890625 0 
L 79.890625 32.71875 
Q 79.890625 40.578125 77.09375 44.375 
Q 74.3125 48.1875 68.609375 48.1875 
Q 61.625 48.1875 57.5625 43.546875 
Q 53.515625 38.921875 53.515625 30.90625 
L 53.515625 0 
L 44.484375 0 
L 44.484375 32.71875 
Q 44.484375 40.625 41.703125 44.40625 
Q 38.921875 48.1875 33.109375 48.1875 
Q 26.21875 48.1875 22.15625 43.53125 
Q 18.109375 38.875 18.109375 30.90625 
L 18.109375 0 
L 9.078125 0 
L 9.078125 54.6875 
L 18.109375 54.6875 
L 18.109375 46.1875 
Q 21.1875 51.21875 25.484375 53.609375 
Q 29.78125 56 35.6875 56 
Q 41.65625 56 45.828125 52.96875 
Q 50 49.953125 52 44.1875 
z
" id="DejaVuSans-109"/>
     <path d="M 54.890625 33.015625 
L 54.890625 0 
L 45.90625 0 
L 45.90625 32.71875 
Q 45.90625 40.484375 42.875 44.328125 
Q 39.84375 48.1875 33.796875 48.1875 
Q 26.515625 48.1875 22.3125 43.546875 
Q 18.109375 38.921875 18.109375 30.90625 
L 18.109375 0 
L 9.078125 0 
L 9.078125 54.6875 
L 18.109375 54.6875 
L 18.109375 46.1875 
Q 21.34375 51.125 25.703125 53.5625 
Q 30.078125 56 35.796875 56 
Q 45.21875 56 50.046875 50.171875 
Q 54.890625 44.34375 54.890625 33.015625 
z
" id="DejaVuSans-110"/>
     <path d="M 34.28125 27.484375 
Q 23.390625 27.484375 19.1875 25 
Q 14.984375 22.515625 14.984375 16.5 
Q 14.984375 11.71875 18.140625 8.90625 
Q 21.296875 6.109375 26.703125 6.109375 
Q 34.1875 6.109375 38.703125 11.40625 
Q 43.21875 16.703125 43.21875 25.484375 
L 43.21875 27.484375 
z
M 52.203125 31.203125 
L 52.203125 0 
L 43.21875 0 
L 43.21875 8.296875 
Q 40.140625 3.328125 35.546875 0.953125 
Q 30.953125 -1.421875 24.3125 -1.421875 
Q 15.921875 -1.421875 10.953125 3.296875 
Q 6 8.015625 6 15.921875 
Q 6 25.140625 12.171875 29.828125 
Q 18.359375 34.515625 30.609375 34.515625 
L 43.21875 34.515625 
L 43.21875 35.40625 
Q 43.21875 41.609375 39.140625 45 
Q 35.0625 48.390625 27.6875 48.390625 
Q 23 48.390625 18.546875 47.265625 
Q 14.109375 46.140625 10.015625 43.890625 
L 10.015625 52.203125 
Q 14.9375 54.109375 19.578125 55.046875 
Q 24.21875 56 28.609375 56 
Q 40.484375 56 46.34375 49.84375 
Q 52.203125 43.703125 52.203125 31.203125 
z
" id="DejaVuSans-97"/>
     <path d="M 44.28125 53.078125 
L 44.28125 44.578125 
Q 40.484375 46.53125 36.375 47.5 
Q 32.28125 48.484375 27.875 48.484375 
Q 21.1875 48.484375 17.84375 46.4375 
Q 14.5 44.390625 14.5 40.28125 
Q 14.5 37.15625 16.890625 35.375 
Q 19.28125 33.59375 26.515625 31.984375 
L 29.59375 31.296875 
Q 39.15625 29.25 43.1875 25.515625 
Q 47.21875 21.78125 47.21875 15.09375 
Q 47.21875 7.46875 41.1875 3.015625 
Q 35.15625 -1.421875 24.609375 -1.421875 
Q 20.21875 -1.421875 15.453125 -0.5625 
Q 10.6875 0.296875 5.421875 2 
L 5.421875 11.28125 
Q 10.40625 8.6875 15.234375 7.390625 
Q 20.0625 6.109375 24.8125 6.109375 
Q 31.15625 6.109375 34.5625 8.28125 
Q 37.984375 10.453125 37.984375 14.40625 
Q 37.984375 18.0625 35.515625 20.015625 
Q 33.0625 21.96875 24.703125 23.78125 
L 21.578125 24.515625 
Q 13.234375 26.265625 9.515625 29.90625 
Q 5.8125 33.546875 5.8125 39.890625 
Q 5.8125 47.609375 11.28125 51.796875 
Q 16.75 56 26.8125 56 
Q 31.78125 56 36.171875 55.265625 
Q 40.578125 54.546875 44.28125 53.078125 
z
" id="DejaVuSans-115"/>
    </defs>
    <g style="fill:#262626;" transform="translate(182.772627 28.044)scale(0.153 -0.153)">
     <use xlink:href="#DejaVuSans-77"/>
     <use x="86.279297" xlink:href="#DejaVuSans-72"/>
     <use x="161.474609" xlink:href="#DejaVuSans-32"/>
     <use x="193.261719" xlink:href="#DejaVuSans-61"/>
     <use x="277.050781" xlink:href="#DejaVuSans-32"/>
     <use x="308.837891" xlink:href="#DejaVuSans-99"/>
     <use x="363.818359" xlink:href="#DejaVuSans-111"/>
     <use x="425" xlink:href="#DejaVuSans-109"/>
     <use x="522.412109" xlink:href="#DejaVuSans-98"/>
     <use x="585.888672" xlink:href="#DejaVuSans-105"/>
     <use x="613.671875" xlink:href="#DejaVuSans-110"/>
     <use x="677.050781" xlink:href="#DejaVuSans-97"/>
     <use x="738.330078" xlink:href="#DejaVuSans-116"/>
     <use x="777.539062" xlink:href="#DejaVuSans-105"/>
     <use x="805.322266" xlink:href="#DejaVuSans-111"/>
     <use x="866.503906" xlink:href="#DejaVuSans-110"/>
     <use x="929.882812" xlink:href="#DejaVuSans-115"/>
    </g>
   </g>
  </g>
  <g id="axes_2">
   <g id="patch_5">
    <path d="M 419.779599 329.448 
L 711.1917 329.448 
L 711.1917 34.044 
L 419.779599 34.044 
z
" style="fill:#eaeaf2;"/>
   </g>
   <g id="matplotlib.axis_3">
    <g id="xtick_6">
     <g id="line2d_15">
      <path clip-path="url(#p9f481aac87)" d="M 429.908897 329.448 
L 429.908897 34.044 
" style="fill:none;stroke:#ffffff;stroke-linecap:round;stroke-width:1.5;"/>
     </g>
    </g>
    <g id="xtick_7">
     <g id="line2d_16">
      <path clip-path="url(#p9f481aac87)" d="M 492.243036 329.448 
L 492.243036 34.044 
" style="fill:none;stroke:#ffffff;stroke-linecap:round;stroke-width:1.5;"/>
     </g>
    </g>
    <g id="xtick_8">
     <g id="line2d_17">
      <path clip-path="url(#p9f481aac87)" d="M 554.577175 329.448 
L 554.577175 34.044 
" style="fill:none;stroke:#ffffff;stroke-linecap:round;stroke-width:1.5;"/>
     </g>
    </g>
    <g id="xtick_9">
     <g id="line2d_18">
      <path clip-path="url(#p9f481aac87)" d="M 616.911314 329.448 
L 616.911314 34.044 
" style="fill:none;stroke:#ffffff;stroke-linecap:round;stroke-width:1.5;"/>
     </g>
    </g>
    <g id="xtick_10">
     <g id="line2d_19">
      <path clip-path="url(#p9f481aac87)" d="M 679.245454 329.448 
L 679.245454 34.044 
" style="fill:none;stroke:#ffffff;stroke-linecap:round;stroke-width:1.5;"/>
     </g>
    </g>
   </g>
   <g id="matplotlib.axis_4">
    <g id="ytick_8">
     <g id="line2d_20">
      <path clip-path="url(#p9f481aac87)" d="M 419.779599 311.564635 
L 711.1917 311.564635 
" style="fill:none;stroke:#ffffff;stroke-linecap:round;stroke-width:1.5;"/>
     </g>
    </g>
    <g id="ytick_9">
     <g id="line2d_21">
      <path clip-path="url(#p9f481aac87)" d="M 419.779599 267.28244 
L 711.1917 267.28244 
" style="fill:none;stroke:#ffffff;stroke-linecap:round;stroke-width:1.5;"/>
     </g>
    </g>
    <g id="ytick_10">
     <g id="line2d_22">
      <path clip-path="url(#p9f481aac87)" d="M 419.779599 223.000244 
L 711.1917 223.000244 
" style="fill:none;stroke:#ffffff;stroke-linecap:round;stroke-width:1.5;"/>
     </g>
    </g>
    <g id="ytick_11">
     <g id="line2d_23">
      <path clip-path="url(#p9f481aac87)" d="M 419.779599 178.718048 
L 711.1917 178.718048 
" style="fill:none;stroke:#ffffff;stroke-linecap:round;stroke-width:1.5;"/>
     </g>
    </g>
    <g id="ytick_12">
     <g id="line2d_24">
      <path clip-path="url(#p9f481aac87)" d="M 419.779599 134.435853 
L 711.1917 134.435853 
" style="fill:none;stroke:#ffffff;stroke-linecap:round;stroke-width:1.5;"/>
     </g>
    </g>
    <g id="ytick_13">
     <g id="line2d_25">
      <path clip-path="url(#p9f481aac87)" d="M 419.779599 90.153657 
L 711.1917 90.153657 
" style="fill:none;stroke:#ffffff;stroke-linecap:round;stroke-width:1.5;"/>
     </g>
    </g>
    <g id="ytick_14">
     <g id="line2d_26">
      <path clip-path="url(#p9f481aac87)" d="M 419.779599 45.871462 
L 711.1917 45.871462 
" style="fill:none;stroke:#ffffff;stroke-linecap:round;stroke-width:1.5;"/>
     </g>
    </g>
   </g>
   <g id="PolyCollection_2">
    <defs>
     <path d="M 433.025604 -598.010974 
L 433.025604 -563.629659 
L 436.142311 -547.890267 
L 439.259018 -546.106395 
L 442.375725 -549.492089 
L 445.492431 -538.908681 
L 448.609138 -533.91914 
L 451.725845 -538.210646 
L 454.842552 -528.056392 
L 457.959259 -524.899929 
L 461.075966 -527.464192 
L 464.192673 -522.694553 
L 467.30938 -518.973813 
L 470.426087 -520.300827 
L 473.542794 -517.796054 
L 476.659501 -515.178739 
L 479.776208 -515.081286 
L 482.892915 -513.932458 
L 486.009622 -510.567588 
L 489.126329 -510.561183 
L 492.243036 -508.31963 
L 495.359743 -508.693419 
L 498.47645 -507.564614 
L 501.593157 -505.128372 
L 504.709864 -505.66866 
L 507.826571 -505.118031 
L 510.943278 -501.426212 
L 514.059985 -502.608977 
L 517.176692 -503.492721 
L 520.293399 -496.437779 
L 523.410106 -497.74587 
L 526.526813 -497.030054 
L 529.643519 -494.353842 
L 532.760226 -494.406914 
L 535.876933 -494.423808 
L 538.99364 -493.557582 
L 542.110347 -491.911609 
L 545.227054 -491.696413 
L 548.343761 -489.722181 
L 551.460468 -489.852977 
L 554.577175 -489.595273 
L 557.693882 -487.198598 
L 560.810589 -487.600383 
L 563.927296 -487.322968 
L 567.044003 -485.89654 
L 570.16071 -485.292667 
L 573.277417 -486.296723 
L 576.394124 -485.720811 
L 579.510831 -484.690193 
L 582.627538 -484.717525 
L 585.744245 -484.950114 
L 588.860952 -484.666171 
L 591.977659 -484.33006 
L 595.094366 -483.850494 
L 598.211073 -484.134318 
L 601.32778 -483.948535 
L 604.444487 -483.278155 
L 607.561194 -483.207198 
L 610.6779 -482.925044 
L 613.794607 -482.86655 
L 616.911314 -482.71937 
L 620.028021 -482.837149 
L 623.144728 -482.44335 
L 626.261435 -482.425062 
L 629.378142 -482.453097 
L 632.494849 -482.371058 
L 635.611556 -482.29534 
L 638.728263 -482.366293 
L 641.84497 -482.289849 
L 644.961677 -482.220654 
L 648.078384 -482.230958 
L 651.195091 -482.207996 
L 654.311798 -482.196598 
L 657.428505 -482.145094 
L 660.545212 -482.151792 
L 663.661919 -482.106459 
L 666.778626 -482.040655 
L 669.895333 -482.07618 
L 673.01204 -482.077954 
L 676.128747 -481.994465 
L 679.245454 -481.97912 
L 682.362161 -481.973439 
L 685.478868 -481.978561 
L 688.595575 -481.947155 
L 691.712281 -481.966881 
L 694.828988 -481.935297 
L 697.945695 -481.935876 
L 697.945695 -524.554436 
L 697.945695 -524.554436 
L 694.828988 -524.642774 
L 691.712281 -524.719883 
L 688.595575 -524.593075 
L 685.478868 -524.768587 
L 682.362161 -524.759217 
L 679.245454 -524.772054 
L 676.128747 -524.873453 
L 673.01204 -524.926031 
L 669.895333 -524.906067 
L 666.778626 -525.099397 
L 663.661919 -525.112496 
L 660.545212 -525.097758 
L 657.428505 -525.593171 
L 654.311798 -525.392717 
L 651.195091 -525.560058 
L 648.078384 -525.795543 
L 644.961677 -525.749488 
L 641.84497 -525.886407 
L 638.728263 -525.864711 
L 635.611556 -526.070926 
L 632.494849 -526.138522 
L 629.378142 -526.153904 
L 626.261435 -526.319616 
L 623.144728 -526.33917 
L 620.028021 -526.388997 
L 616.911314 -526.567161 
L 613.794607 -526.733982 
L 610.6779 -526.532175 
L 607.561194 -526.976248 
L 604.444487 -527.271627 
L 601.32778 -527.308956 
L 598.211073 -527.574047 
L 595.094366 -527.882025 
L 591.977659 -528.064276 
L 588.860952 -528.900435 
L 585.744245 -528.811334 
L 582.627538 -528.496434 
L 579.510831 -529.466574 
L 576.394124 -529.485847 
L 573.277417 -529.004941 
L 570.16071 -529.777119 
L 567.044003 -530.230383 
L 563.927296 -530.679909 
L 560.810589 -530.411351 
L 557.693882 -530.924244 
L 554.577175 -532.318124 
L 551.460468 -533.638477 
L 548.343761 -533.206487 
L 545.227054 -534.476932 
L 542.110347 -536.037855 
L 538.99364 -536.658324 
L 535.876933 -535.662472 
L 532.760226 -537.523117 
L 529.643519 -538.060877 
L 526.526813 -537.435334 
L 523.410106 -538.441692 
L 520.293399 -539.599224 
L 517.176692 -539.175339 
L 514.059985 -539.481 
L 510.943278 -540.328025 
L 507.826571 -541.002431 
L 504.709864 -541.552416 
L 501.593157 -542.180463 
L 498.47645 -542.7852 
L 495.359743 -543.856818 
L 492.243036 -544.370699 
L 489.126329 -546.175734 
L 486.009622 -546.950305 
L 482.892915 -547.811567 
L 479.776208 -548.930793 
L 476.659501 -549.776148 
L 473.542794 -552.359173 
L 470.426087 -553.751233 
L 467.30938 -553.848812 
L 464.192673 -556.057861 
L 461.075966 -559.697814 
L 457.959259 -559.191308 
L 454.842552 -562.136126 
L 451.725845 -569.700386 
L 448.609138 -569.506508 
L 445.492431 -575.081893 
L 442.375725 -578.962661 
L 439.259018 -581.046459 
L 436.142311 -584.899308 
L 433.025604 -598.010974 
z
" id="m217926f589" style="stroke:#4c72b0;stroke-opacity:0.2;stroke-width:1.5;"/>
    </defs>
    <g clip-path="url(#p9f481aac87)">
     <use style="fill:#4c72b0;fill-opacity:0.2;stroke:#4c72b0;stroke-opacity:0.2;stroke-width:1.5;" x="0" xlink:href="#m217926f589" y="720"/>
    </g>
   </g>
   <g id="line2d_27">
    <path clip-path="url(#p9f481aac87)" d="M 433.025604 139.179684 
L 436.142311 153.605213 
L 439.259018 156.423573 
L 442.375725 155.772625 
L 445.492431 163.004713 
L 448.609138 168.287176 
L 451.725845 166.044484 
L 454.842552 174.903741 
L 457.959259 177.954382 
L 461.075966 176.418997 
L 464.192673 180.623793 
L 467.30938 183.588687 
L 470.426087 182.97397 
L 473.542794 184.922387 
L 476.659501 187.522557 
L 479.776208 187.993961 
L 482.892915 189.127987 
L 486.009622 191.241053 
L 489.126329 191.631542 
L 492.243036 193.654836 
L 495.359743 193.724882 
L 498.47645 194.825093 
L 501.593157 196.345583 
L 504.709864 196.389462 
L 507.826571 196.939769 
L 510.943278 199.122882 
L 514.059985 198.955012 
L 517.176692 198.66597 
L 520.293399 201.981499 
L 523.410106 201.906219 
L 526.526813 202.767306 
L 529.643519 203.79264 
L 532.760226 204.034985 
L 535.876933 204.95686 
L 538.99364 204.892047 
L 542.110347 206.025268 
L 545.227054 206.913327 
L 548.343761 208.535666 
L 551.460468 208.254273 
L 554.577175 209.043301 
L 557.693882 210.938579 
L 560.810589 210.994133 
L 563.927296 210.998561 
L 567.044003 211.936539 
L 570.16071 212.465107 
L 573.277417 212.349168 
L 576.394124 212.396671 
L 579.510831 212.921616 
L 582.627538 213.39302 
L 585.744245 213.119276 
L 588.860952 213.216697 
L 591.977659 213.802832 
L 595.094366 214.133741 
L 598.211073 214.145818 
L 601.32778 214.371254 
L 604.444487 214.725109 
L 607.561194 214.908277 
L 610.6779 215.271391 
L 613.794607 215.199734 
L 616.911314 215.356734 
L 620.028021 215.386927 
L 623.144728 215.60874 
L 626.261435 215.627661 
L 629.378142 215.6965 
L 632.494849 215.74521 
L 635.611556 215.816867 
L 638.728263 215.884498 
L 641.84497 215.911872 
L 644.961677 216.014929 
L 648.078384 215.986749 
L 651.195091 216.115973 
L 654.311798 216.205342 
L 657.428505 216.130868 
L 660.545212 216.375225 
L 663.661919 216.390522 
L 666.778626 216.429974 
L 669.895333 216.508877 
L 673.01204 216.498007 
L 676.128747 216.566041 
L 679.245454 216.624413 
L 682.362161 216.633672 
L 685.478868 216.626426 
L 688.595575 216.729885 
L 691.712281 216.656618 
L 694.828988 216.710965 
L 697.945695 216.754844 
" style="fill:none;stroke:#4c72b0;stroke-linecap:round;stroke-width:2.25;"/>
   </g>
   <g id="line2d_28">
    <path clip-path="url(#p9f481aac87)" d="M 419.779599 305.887658 
L 711.1917 305.887658 
" style="fill:none;stroke:#008000;stroke-dasharray:8.325,3.6;stroke-dashoffset:0;stroke-width:2.25;"/>
   </g>
   <g id="patch_6">
    <path d="M 419.779599 329.448 
L 419.779599 34.044 
" style="fill:none;stroke:#ffffff;stroke-linecap:square;stroke-linejoin:miter;stroke-width:1.875;"/>
   </g>
   <g id="patch_7">
    <path d="M 419.779599 329.448 
L 711.1917 329.448 
" style="fill:none;stroke:#ffffff;stroke-linecap:square;stroke-linejoin:miter;stroke-width:1.875;"/>
   </g>
   <g id="text_10">
    <!-- MH = ES -->
    <defs>
     <path d="M 9.8125 72.90625 
L 55.90625 72.90625 
L 55.90625 64.59375 
L 19.671875 64.59375 
L 19.671875 43.015625 
L 54.390625 43.015625 
L 54.390625 34.71875 
L 19.671875 34.71875 
L 19.671875 8.296875 
L 56.78125 8.296875 
L 56.78125 0 
L 9.8125 0 
z
" id="DejaVuSans-69"/>
     <path d="M 53.515625 70.515625 
L 53.515625 60.890625 
Q 47.90625 63.578125 42.921875 64.890625 
Q 37.9375 66.21875 33.296875 66.21875 
Q 25.25 66.21875 20.875 63.09375 
Q 16.5 59.96875 16.5 54.203125 
Q 16.5 49.359375 19.40625 46.890625 
Q 22.3125 44.4375 30.421875 42.921875 
L 36.375 41.703125 
Q 47.40625 39.59375 52.65625 34.296875 
Q 57.90625 29 57.90625 20.125 
Q 57.90625 9.515625 50.796875 4.046875 
Q 43.703125 -1.421875 29.984375 -1.421875 
Q 24.8125 -1.421875 18.96875 -0.25 
Q 13.140625 0.921875 6.890625 3.21875 
L 6.890625 13.375 
Q 12.890625 10.015625 18.65625 8.296875 
Q 24.421875 6.59375 29.984375 6.59375 
Q 38.421875 6.59375 43.015625 9.90625 
Q 47.609375 13.234375 47.609375 19.390625 
Q 47.609375 24.75 44.3125 27.78125 
Q 41.015625 30.8125 33.5 32.328125 
L 27.484375 33.5 
Q 16.453125 35.6875 11.515625 40.375 
Q 6.59375 45.0625 6.59375 53.421875 
Q 6.59375 63.09375 13.40625 68.65625 
Q 20.21875 74.21875 32.171875 74.21875 
Q 37.3125 74.21875 42.625 73.28125 
Q 47.953125 72.359375 53.515625 70.515625 
z
" id="DejaVuSans-83"/>
    </defs>
    <g style="fill:#262626;" transform="translate(532.168704 28.044)scale(0.153 -0.153)">
     <use xlink:href="#DejaVuSans-77"/>
     <use x="86.279297" xlink:href="#DejaVuSans-72"/>
     <use x="161.474609" xlink:href="#DejaVuSans-32"/>
     <use x="193.261719" xlink:href="#DejaVuSans-61"/>
     <use x="277.050781" xlink:href="#DejaVuSans-32"/>
     <use x="308.837891" xlink:href="#DejaVuSans-69"/>
     <use x="372.021484" xlink:href="#DejaVuSans-83"/>
    </g>
   </g>
  </g>
  <g id="axes_3">
   <g id="patch_8">
    <path d="M 112.188381 658.896 
L 403.600482 658.896 
L 403.600482 363.492 
L 112.188381 363.492 
z
" style="fill:#eaeaf2;"/>
   </g>
   <g id="matplotlib.axis_5">
    <g id="xtick_11">
     <g id="line2d_29">
      <path clip-path="url(#p60cc9cdb3f)" d="M 122.317679 658.896 
L 122.317679 363.492 
" style="fill:none;stroke:#ffffff;stroke-linecap:round;stroke-width:1.5;"/>
     </g>
     <g id="text_11">
      <!-- 0 -->
      <g style="fill:#262626;" transform="translate(117.855976 682.052809)scale(0.14025 -0.14025)">
       <use xlink:href="#DejaVuSans-48"/>
      </g>
     </g>
    </g>
    <g id="xtick_12">
     <g id="line2d_30">
      <path clip-path="url(#p60cc9cdb3f)" d="M 184.651818 658.896 
L 184.651818 363.492 
" style="fill:none;stroke:#ffffff;stroke-linecap:round;stroke-width:1.5;"/>
     </g>
     <g id="text_12">
      <!-- 20 -->
      <g style="fill:#262626;" transform="translate(175.728412 682.052809)scale(0.14025 -0.14025)">
       <use xlink:href="#DejaVuSans-50"/>
       <use x="63.623047" xlink:href="#DejaVuSans-48"/>
      </g>
     </g>
    </g>
    <g id="xtick_13">
     <g id="line2d_31">
      <path clip-path="url(#p60cc9cdb3f)" d="M 246.985957 658.896 
L 246.985957 363.492 
" style="fill:none;stroke:#ffffff;stroke-linecap:round;stroke-width:1.5;"/>
     </g>
     <g id="text_13">
      <!-- 40 -->
      <g style="fill:#262626;" transform="translate(238.062551 682.052809)scale(0.14025 -0.14025)">
       <use xlink:href="#DejaVuSans-52"/>
       <use x="63.623047" xlink:href="#DejaVuSans-48"/>
      </g>
     </g>
    </g>
    <g id="xtick_14">
     <g id="line2d_32">
      <path clip-path="url(#p60cc9cdb3f)" d="M 309.320096 658.896 
L 309.320096 363.492 
" style="fill:none;stroke:#ffffff;stroke-linecap:round;stroke-width:1.5;"/>
     </g>
     <g id="text_14">
      <!-- 60 -->
      <g style="fill:#262626;" transform="translate(300.39669 682.052809)scale(0.14025 -0.14025)">
       <use xlink:href="#DejaVuSans-54"/>
       <use x="63.623047" xlink:href="#DejaVuSans-48"/>
      </g>
     </g>
    </g>
    <g id="xtick_15">
     <g id="line2d_33">
      <path clip-path="url(#p60cc9cdb3f)" d="M 371.654236 658.896 
L 371.654236 363.492 
" style="fill:none;stroke:#ffffff;stroke-linecap:round;stroke-width:1.5;"/>
     </g>
     <g id="text_15">
      <!-- 80 -->
      <g style="fill:#262626;" transform="translate(362.730829 682.052809)scale(0.14025 -0.14025)">
       <use xlink:href="#DejaVuSans-56"/>
       <use x="63.623047" xlink:href="#DejaVuSans-48"/>
      </g>
     </g>
    </g>
    <g id="text_16">
     <!-- iteration -->
     <defs>
      <path d="M 41.109375 46.296875 
Q 39.59375 47.171875 37.8125 47.578125 
Q 36.03125 48 33.890625 48 
Q 26.265625 48 22.1875 43.046875 
Q 18.109375 38.09375 18.109375 28.8125 
L 18.109375 0 
L 9.078125 0 
L 9.078125 54.6875 
L 18.109375 54.6875 
L 18.109375 46.1875 
Q 20.953125 51.171875 25.484375 53.578125 
Q 30.03125 56 36.53125 56 
Q 37.453125 56 38.578125 55.875 
Q 39.703125 55.765625 41.0625 55.515625 
z
" id="DejaVuSans-114"/>
     </defs>
     <g style="fill:#262626;" transform="translate(225.576767 700.59518)scale(0.153 -0.153)">
      <use xlink:href="#DejaVuSans-105"/>
      <use x="27.783203" xlink:href="#DejaVuSans-116"/>
      <use x="66.992188" xlink:href="#DejaVuSans-101"/>
      <use x="128.515625" xlink:href="#DejaVuSans-114"/>
      <use x="169.628906" xlink:href="#DejaVuSans-97"/>
      <use x="230.908203" xlink:href="#DejaVuSans-116"/>
      <use x="270.117188" xlink:href="#DejaVuSans-105"/>
      <use x="297.900391" xlink:href="#DejaVuSans-111"/>
      <use x="359.082031" xlink:href="#DejaVuSans-110"/>
     </g>
    </g>
   </g>
   <g id="matplotlib.axis_6">
    <g id="ytick_15">
     <g id="line2d_34">
      <path clip-path="url(#p60cc9cdb3f)" d="M 112.188381 641.012635 
L 403.600482 641.012635 
" style="fill:none;stroke:#ffffff;stroke-linecap:round;stroke-width:1.5;"/>
     </g>
     <g id="text_17">
      <!-- 20000 -->
      <g style="fill:#262626;" transform="translate(55.07135 646.34104)scale(0.14025 -0.14025)">
       <use xlink:href="#DejaVuSans-50"/>
       <use x="63.623047" xlink:href="#DejaVuSans-48"/>
       <use x="127.246094" xlink:href="#DejaVuSans-48"/>
       <use x="190.869141" xlink:href="#DejaVuSans-48"/>
       <use x="254.492188" xlink:href="#DejaVuSans-48"/>
      </g>
     </g>
    </g>
    <g id="ytick_16">
     <g id="line2d_35">
      <path clip-path="url(#p60cc9cdb3f)" d="M 112.188381 596.73044 
L 403.600482 596.73044 
" style="fill:none;stroke:#ffffff;stroke-linecap:round;stroke-width:1.5;"/>
     </g>
     <g id="text_18">
      <!-- 30000 -->
      <g style="fill:#262626;" transform="translate(55.07135 602.058844)scale(0.14025 -0.14025)">
       <use xlink:href="#DejaVuSans-51"/>
       <use x="63.623047" xlink:href="#DejaVuSans-48"/>
       <use x="127.246094" xlink:href="#DejaVuSans-48"/>
       <use x="190.869141" xlink:href="#DejaVuSans-48"/>
       <use x="254.492188" xlink:href="#DejaVuSans-48"/>
      </g>
     </g>
    </g>
    <g id="ytick_17">
     <g id="line2d_36">
      <path clip-path="url(#p60cc9cdb3f)" d="M 112.188381 552.448244 
L 403.600482 552.448244 
" style="fill:none;stroke:#ffffff;stroke-linecap:round;stroke-width:1.5;"/>
     </g>
     <g id="text_19">
      <!-- 40000 -->
      <g style="fill:#262626;" transform="translate(55.07135 557.776648)scale(0.14025 -0.14025)">
       <use xlink:href="#DejaVuSans-52"/>
       <use x="63.623047" xlink:href="#DejaVuSans-48"/>
       <use x="127.246094" xlink:href="#DejaVuSans-48"/>
       <use x="190.869141" xlink:href="#DejaVuSans-48"/>
       <use x="254.492188" xlink:href="#DejaVuSans-48"/>
      </g>
     </g>
    </g>
    <g id="ytick_18">
     <g id="line2d_37">
      <path clip-path="url(#p60cc9cdb3f)" d="M 112.188381 508.166048 
L 403.600482 508.166048 
" style="fill:none;stroke:#ffffff;stroke-linecap:round;stroke-width:1.5;"/>
     </g>
     <g id="text_20">
      <!-- 50000 -->
      <g style="fill:#262626;" transform="translate(55.07135 513.494453)scale(0.14025 -0.14025)">
       <use xlink:href="#DejaVuSans-53"/>
       <use x="63.623047" xlink:href="#DejaVuSans-48"/>
       <use x="127.246094" xlink:href="#DejaVuSans-48"/>
       <use x="190.869141" xlink:href="#DejaVuSans-48"/>
       <use x="254.492188" xlink:href="#DejaVuSans-48"/>
      </g>
     </g>
    </g>
    <g id="ytick_19">
     <g id="line2d_38">
      <path clip-path="url(#p60cc9cdb3f)" d="M 112.188381 463.883853 
L 403.600482 463.883853 
" style="fill:none;stroke:#ffffff;stroke-linecap:round;stroke-width:1.5;"/>
     </g>
     <g id="text_21">
      <!-- 60000 -->
      <g style="fill:#262626;" transform="translate(55.07135 469.212257)scale(0.14025 -0.14025)">
       <use xlink:href="#DejaVuSans-54"/>
       <use x="63.623047" xlink:href="#DejaVuSans-48"/>
       <use x="127.246094" xlink:href="#DejaVuSans-48"/>
       <use x="190.869141" xlink:href="#DejaVuSans-48"/>
       <use x="254.492188" xlink:href="#DejaVuSans-48"/>
      </g>
     </g>
    </g>
    <g id="ytick_20">
     <g id="line2d_39">
      <path clip-path="url(#p60cc9cdb3f)" d="M 112.188381 419.601657 
L 403.600482 419.601657 
" style="fill:none;stroke:#ffffff;stroke-linecap:round;stroke-width:1.5;"/>
     </g>
     <g id="text_22">
      <!-- 70000 -->
      <g style="fill:#262626;" transform="translate(55.07135 424.930061)scale(0.14025 -0.14025)">
       <use xlink:href="#DejaVuSans-55"/>
       <use x="63.623047" xlink:href="#DejaVuSans-48"/>
       <use x="127.246094" xlink:href="#DejaVuSans-48"/>
       <use x="190.869141" xlink:href="#DejaVuSans-48"/>
       <use x="254.492188" xlink:href="#DejaVuSans-48"/>
      </g>
     </g>
    </g>
    <g id="ytick_21">
     <g id="line2d_40">
      <path clip-path="url(#p60cc9cdb3f)" d="M 112.188381 375.319462 
L 403.600482 375.319462 
" style="fill:none;stroke:#ffffff;stroke-linecap:round;stroke-width:1.5;"/>
     </g>
     <g id="text_23">
      <!-- 80000 -->
      <g style="fill:#262626;" transform="translate(55.07135 380.647866)scale(0.14025 -0.14025)">
       <use xlink:href="#DejaVuSans-56"/>
       <use x="63.623047" xlink:href="#DejaVuSans-48"/>
       <use x="127.246094" xlink:href="#DejaVuSans-48"/>
       <use x="190.869141" xlink:href="#DejaVuSans-48"/>
       <use x="254.492188" xlink:href="#DejaVuSans-48"/>
      </g>
     </g>
    </g>
    <g id="text_24">
     <!-- objective -->
     <g style="fill:#262626;" transform="translate(47.889428 546.129398)rotate(-90)scale(0.153 -0.153)">
      <use xlink:href="#DejaVuSans-111"/>
      <use x="61.181641" xlink:href="#DejaVuSans-98"/>
      <use x="124.658203" xlink:href="#DejaVuSans-106"/>
      <use x="152.441406" xlink:href="#DejaVuSans-101"/>
      <use x="213.964844" xlink:href="#DejaVuSans-99"/>
      <use x="268.945312" xlink:href="#DejaVuSans-116"/>
      <use x="308.154297" xlink:href="#DejaVuSans-105"/>
      <use x="335.9375" xlink:href="#DejaVuSans-118"/>
      <use x="395.117188" xlink:href="#DejaVuSans-101"/>
     </g>
    </g>
   </g>
   <g id="PolyCollection_3">
    <defs>
     <path d="M 125.434386 -343.563064 
L 125.434386 -313.855253 
L 128.551093 -276.716926 
L 131.6678 -270.986207 
L 134.784506 -274.842598 
L 137.901213 -253.969824 
L 141.01792 -248.896372 
L 144.134627 -247.422437 
L 147.251334 -236.804695 
L 150.368041 -237.259788 
L 153.484748 -231.362742 
L 156.601455 -224.230707 
L 159.718162 -224.837474 
L 162.834869 -220.816323 
L 165.951576 -216.760762 
L 169.068283 -212.221686 
L 172.18499 -211.52722 
L 175.301697 -208.275062 
L 178.418404 -208.432685 
L 181.535111 -202.300383 
L 184.651818 -200.870637 
L 187.768525 -200.619819 
L 190.885232 -197.590479 
L 194.001939 -195.620058 
L 197.118646 -195.53622 
L 200.235353 -193.274623 
L 203.35206 -189.767469 
L 206.468767 -192.652547 
L 209.585474 -190.643313 
L 212.702181 -187.932472 
L 215.818887 -186.762557 
L 218.935594 -186.439594 
L 222.052301 -185.208312 
L 225.169008 -184.491742 
L 228.285715 -183.860208 
L 231.402422 -183.129355 
L 234.519129 -182.645806 
L 237.635836 -181.838678 
L 240.752543 -181.481013 
L 243.86925 -181.078258 
L 246.985957 -180.333908 
L 250.102664 -179.853054 
L 253.219371 -179.109301 
L 256.336078 -177.971733 
L 259.452785 -178.613672 
L 262.569492 -176.162989 
L 265.686199 -176.754138 
L 268.802906 -176.713507 
L 271.919613 -174.669043 
L 275.03632 -174.073365 
L 278.153027 -173.599194 
L 281.269734 -173.886299 
L 284.386441 -172.550223 
L 287.503148 -172.577259 
L 290.619855 -172.784177 
L 293.736562 -170.604375 
L 296.853268 -171.188945 
L 299.969975 -170.922864 
L 303.086682 -169.903447 
L 306.203389 -170.311015 
L 309.320096 -169.954552 
L 312.436803 -169.472472 
L 315.55351 -169.642551 
L 318.670217 -169.311577 
L 321.786924 -168.857312 
L 324.903631 -169.501229 
L 328.020338 -169.156083 
L 331.137045 -168.538592 
L 334.253752 -168.395177 
L 337.370459 -168.340314 
L 340.487166 -167.974541 
L 343.603873 -167.773229 
L 346.72058 -167.384951 
L 349.837287 -167.478103 
L 352.953994 -167.517452 
L 356.070701 -167.280857 
L 359.187408 -166.677992 
L 362.304115 -167.232717 
L 365.420822 -167.118395 
L 368.537529 -166.484432 
L 371.654236 -166.480687 
L 374.770943 -166.451941 
L 377.88765 -166.233721 
L 381.004356 -166.195888 
L 384.121063 -165.799516 
L 387.23777 -165.887114 
L 390.354477 -166.019151 
L 390.354477 -201.935309 
L 390.354477 -201.935309 
L 387.23777 -202.296003 
L 384.121063 -201.641271 
L 381.004356 -203.726312 
L 377.88765 -203.592668 
L 374.770943 -202.475117 
L 371.654236 -204.084812 
L 368.537529 -204.596351 
L 365.420822 -204.324697 
L 362.304115 -204.20957 
L 359.187408 -206.389049 
L 356.070701 -205.403747 
L 352.953994 -204.746068 
L 349.837287 -206.558315 
L 346.72058 -207.03954 
L 343.603873 -206.847714 
L 340.487166 -207.704344 
L 337.370459 -207.484299 
L 334.253752 -207.69513 
L 331.137045 -208.41401 
L 328.020338 -208.455921 
L 324.903631 -208.339432 
L 321.786924 -209.821491 
L 318.670217 -209.765765 
L 315.55351 -209.392925 
L 312.436803 -210.169267 
L 309.320096 -210.530964 
L 306.203389 -210.600416 
L 303.086682 -211.596534 
L 299.969975 -211.482889 
L 296.853268 -211.467204 
L 293.736562 -211.972871 
L 290.619855 -212.93952 
L 287.503148 -214.26557 
L 284.386441 -213.927077 
L 281.269734 -214.035406 
L 278.153027 -215.496391 
L 275.03632 -215.556022 
L 271.919613 -216.733242 
L 268.802906 -218.302205 
L 265.686199 -218.065928 
L 262.569492 -218.434055 
L 259.452785 -220.139458 
L 256.336078 -218.857939 
L 253.219371 -220.498877 
L 250.102664 -223.155997 
L 246.985957 -221.988367 
L 243.86925 -223.188407 
L 240.752543 -224.055344 
L 237.635836 -226.923838 
L 234.519129 -226.929892 
L 231.402422 -227.393177 
L 228.285715 -230.533393 
L 225.169008 -229.632946 
L 222.052301 -232.097447 
L 218.935594 -233.027137 
L 215.818887 -232.28631 
L 212.702181 -235.554276 
L 209.585474 -237.479379 
L 206.468767 -237.152063 
L 203.35206 -238.622527 
L 200.235353 -241.003294 
L 197.118646 -240.568539 
L 194.001939 -242.337308 
L 190.885232 -246.059161 
L 187.768525 -246.605407 
L 184.651818 -248.73053 
L 181.535111 -249.541463 
L 178.418404 -250.601395 
L 175.301697 -253.366032 
L 172.18499 -258.091109 
L 169.068283 -256.474769 
L 165.951576 -260.576357 
L 162.834869 -267.051908 
L 159.718162 -267.917901 
L 156.601455 -268.059302 
L 153.484748 -277.085438 
L 150.368041 -276.541706 
L 147.251334 -279.210909 
L 144.134627 -291.404939 
L 141.01792 -287.926229 
L 137.901213 -290.363037 
L 134.784506 -313.546217 
L 131.6678 -314.848732 
L 128.551093 -311.454503 
L 125.434386 -343.563064 
z
" id="m8078125d57" style="stroke:#4c72b0;stroke-opacity:0.2;stroke-width:1.5;"/>
    </defs>
    <g clip-path="url(#p60cc9cdb3f)">
     <use style="fill:#4c72b0;fill-opacity:0.2;stroke:#4c72b0;stroke-opacity:0.2;stroke-width:1.5;" x="0" xlink:href="#m8078125d57" y="720"/>
    </g>
   </g>
   <g id="line2d_41">
    <path clip-path="url(#p60cc9cdb3f)" d="M 125.434386 391.290842 
L 128.551093 425.914285 
L 131.6678 427.08253 
L 134.784506 425.805593 
L 137.901213 447.83357 
L 141.01792 451.5887 
L 144.134627 450.586312 
L 147.251334 461.992198 
L 150.368041 463.099253 
L 153.484748 465.77591 
L 156.601455 473.854996 
L 159.718162 473.622313 
L 162.834869 476.065885 
L 165.951576 481.33144 
L 169.068283 485.651772 
L 172.18499 485.190835 
L 175.301697 489.179453 
L 178.418404 490.48296 
L 181.535111 494.079077 
L 184.651818 495.199416 
L 187.768525 496.387387 
L 190.885232 498.17518 
L 194.001939 501.021317 
L 197.118646 501.94762 
L 200.235353 502.861041 
L 203.35206 505.805002 
L 206.468767 505.097695 
L 209.585474 505.938654 
L 212.702181 508.256626 
L 215.818887 510.475566 
L 218.935594 510.266635 
L 222.052301 511.34712 
L 225.169008 512.937656 
L 228.285715 512.803199 
L 231.402422 514.738734 
L 234.519129 515.212151 
L 237.635836 515.618742 
L 240.752543 517.231822 
L 243.86925 517.866667 
L 246.985957 518.838863 
L 250.102664 518.495474 
L 253.219371 520.195911 
L 256.336078 521.585164 
L 259.452785 520.623435 
L 262.569492 522.701478 
L 265.686199 522.589967 
L 268.802906 522.492144 
L 271.919613 524.298857 
L 275.03632 525.185306 
L 278.153027 525.452207 
L 281.269734 526.039148 
L 284.386441 526.76135 
L 287.503148 526.578585 
L 290.619855 527.138151 
L 293.736562 528.711377 
L 296.853268 528.671925 
L 299.969975 528.797123 
L 303.086682 529.250009 
L 306.203389 529.544285 
L 309.320096 529.757242 
L 312.436803 530.17913 
L 315.55351 530.482262 
L 318.670217 530.461329 
L 321.786924 530.660599 
L 324.903631 531.079669 
L 328.020338 531.193998 
L 331.137045 531.523699 
L 334.253752 531.954846 
L 337.370459 532.087693 
L 340.487166 532.160557 
L 343.603873 532.689528 
L 346.72058 532.787754 
L 349.837287 532.981791 
L 352.953994 533.86824 
L 356.070701 533.657698 
L 359.187408 533.46648 
L 362.304115 534.278857 
L 365.420822 534.278454 
L 368.537529 534.459608 
L 371.654236 534.71725 
L 374.770943 535.536471 
L 377.88765 535.086805 
L 381.004356 535.0389 
L 384.121063 536.279607 
L 387.23777 535.908441 
L 390.354477 536.02277 
" style="fill:none;stroke:#4c72b0;stroke-linecap:round;stroke-width:2.25;"/>
   </g>
   <g id="line2d_42">
    <path clip-path="url(#p60cc9cdb3f)" d="M 112.188381 635.335658 
L 403.600482 635.335658 
" style="fill:none;stroke:#008000;stroke-dasharray:8.325,3.6;stroke-dashoffset:0;stroke-width:2.25;"/>
   </g>
   <g id="patch_9">
    <path d="M 112.188381 658.896 
L 112.188381 363.492 
" style="fill:none;stroke:#ffffff;stroke-linecap:square;stroke-linejoin:miter;stroke-width:1.875;"/>
   </g>
   <g id="patch_10">
    <path d="M 112.188381 658.896 
L 403.600482 658.896 
" style="fill:none;stroke:#ffffff;stroke-linecap:square;stroke-linejoin:miter;stroke-width:1.875;"/>
   </g>
   <g id="text_25">
    <!-- MH = GA -->
    <defs>
     <path d="M 59.515625 10.40625 
L 59.515625 29.984375 
L 43.40625 29.984375 
L 43.40625 38.09375 
L 69.28125 38.09375 
L 69.28125 6.78125 
Q 63.578125 2.734375 56.6875 0.65625 
Q 49.8125 -1.421875 42 -1.421875 
Q 24.90625 -1.421875 15.25 8.5625 
Q 5.609375 18.5625 5.609375 36.375 
Q 5.609375 54.25 15.25 64.234375 
Q 24.90625 74.21875 42 74.21875 
Q 49.125 74.21875 55.546875 72.453125 
Q 61.96875 70.703125 67.390625 67.28125 
L 67.390625 56.78125 
Q 61.921875 61.421875 55.765625 63.765625 
Q 49.609375 66.109375 42.828125 66.109375 
Q 29.4375 66.109375 22.71875 58.640625 
Q 16.015625 51.171875 16.015625 36.375 
Q 16.015625 21.625 22.71875 14.15625 
Q 29.4375 6.6875 42.828125 6.6875 
Q 48.046875 6.6875 52.140625 7.59375 
Q 56.25 8.5 59.515625 10.40625 
z
" id="DejaVuSans-71"/>
     <path d="M 34.1875 63.1875 
L 20.796875 26.90625 
L 47.609375 26.90625 
z
M 28.609375 72.90625 
L 39.796875 72.90625 
L 67.578125 0 
L 57.328125 0 
L 50.6875 18.703125 
L 17.828125 18.703125 
L 11.1875 0 
L 0.78125 0 
z
" id="DejaVuSans-65"/>
    </defs>
    <g style="fill:#262626;" transform="translate(223.107252 357.492)scale(0.153 -0.153)">
     <use xlink:href="#DejaVuSans-77"/>
     <use x="86.279297" xlink:href="#DejaVuSans-72"/>
     <use x="161.474609" xlink:href="#DejaVuSans-32"/>
     <use x="193.261719" xlink:href="#DejaVuSans-61"/>
     <use x="277.050781" xlink:href="#DejaVuSans-32"/>
     <use x="308.837891" xlink:href="#DejaVuSans-71"/>
     <use x="386.328125" xlink:href="#DejaVuSans-65"/>
    </g>
   </g>
  </g>
  <g id="axes_4">
   <g id="patch_11">
    <path d="M 419.779599 658.896 
L 711.1917 658.896 
L 711.1917 363.492 
L 419.779599 363.492 
z
" style="fill:#eaeaf2;"/>
   </g>
   <g id="matplotlib.axis_7">
    <g id="xtick_16">
     <g id="line2d_43">
      <path clip-path="url(#p2a704ff038)" d="M 429.908897 658.896 
L 429.908897 363.492 
" style="fill:none;stroke:#ffffff;stroke-linecap:round;stroke-width:1.5;"/>
     </g>
     <g id="text_26">
      <!-- 0 -->
      <g style="fill:#262626;" transform="translate(425.447194 682.052809)scale(0.14025 -0.14025)">
       <use xlink:href="#DejaVuSans-48"/>
      </g>
     </g>
    </g>
    <g id="xtick_17">
     <g id="line2d_44">
      <path clip-path="url(#p2a704ff038)" d="M 492.243036 658.896 
L 492.243036 363.492 
" style="fill:none;stroke:#ffffff;stroke-linecap:round;stroke-width:1.5;"/>
     </g>
     <g id="text_27">
      <!-- 20 -->
      <g style="fill:#262626;" transform="translate(483.31963 682.052809)scale(0.14025 -0.14025)">
       <use xlink:href="#DejaVuSans-50"/>
       <use x="63.623047" xlink:href="#DejaVuSans-48"/>
      </g>
     </g>
    </g>
    <g id="xtick_18">
     <g id="line2d_45">
      <path clip-path="url(#p2a704ff038)" d="M 554.577175 658.896 
L 554.577175 363.492 
" style="fill:none;stroke:#ffffff;stroke-linecap:round;stroke-width:1.5;"/>
     </g>
     <g id="text_28">
      <!-- 40 -->
      <g style="fill:#262626;" transform="translate(545.653769 682.052809)scale(0.14025 -0.14025)">
       <use xlink:href="#DejaVuSans-52"/>
       <use x="63.623047" xlink:href="#DejaVuSans-48"/>
      </g>
     </g>
    </g>
    <g id="xtick_19">
     <g id="line2d_46">
      <path clip-path="url(#p2a704ff038)" d="M 616.911314 658.896 
L 616.911314 363.492 
" style="fill:none;stroke:#ffffff;stroke-linecap:round;stroke-width:1.5;"/>
     </g>
     <g id="text_29">
      <!-- 60 -->
      <g style="fill:#262626;" transform="translate(607.987908 682.052809)scale(0.14025 -0.14025)">
       <use xlink:href="#DejaVuSans-54"/>
       <use x="63.623047" xlink:href="#DejaVuSans-48"/>
      </g>
     </g>
    </g>
    <g id="xtick_20">
     <g id="line2d_47">
      <path clip-path="url(#p2a704ff038)" d="M 679.245454 658.896 
L 679.245454 363.492 
" style="fill:none;stroke:#ffffff;stroke-linecap:round;stroke-width:1.5;"/>
     </g>
     <g id="text_30">
      <!-- 80 -->
      <g style="fill:#262626;" transform="translate(670.322047 682.052809)scale(0.14025 -0.14025)">
       <use xlink:href="#DejaVuSans-56"/>
       <use x="63.623047" xlink:href="#DejaVuSans-48"/>
      </g>
     </g>
    </g>
    <g id="text_31">
     <!-- iteration -->
     <g style="fill:#262626;" transform="translate(533.167985 700.59518)scale(0.153 -0.153)">
      <use xlink:href="#DejaVuSans-105"/>
      <use x="27.783203" xlink:href="#DejaVuSans-116"/>
      <use x="66.992188" xlink:href="#DejaVuSans-101"/>
      <use x="128.515625" xlink:href="#DejaVuSans-114"/>
      <use x="169.628906" xlink:href="#DejaVuSans-97"/>
      <use x="230.908203" xlink:href="#DejaVuSans-116"/>
      <use x="270.117188" xlink:href="#DejaVuSans-105"/>
      <use x="297.900391" xlink:href="#DejaVuSans-111"/>
      <use x="359.082031" xlink:href="#DejaVuSans-110"/>
     </g>
    </g>
   </g>
   <g id="matplotlib.axis_8">
    <g id="ytick_22">
     <g id="line2d_48">
      <path clip-path="url(#p2a704ff038)" d="M 419.779599 641.012635 
L 711.1917 641.012635 
" style="fill:none;stroke:#ffffff;stroke-linecap:round;stroke-width:1.5;"/>
     </g>
    </g>
    <g id="ytick_23">
     <g id="line2d_49">
      <path clip-path="url(#p2a704ff038)" d="M 419.779599 596.73044 
L 711.1917 596.73044 
" style="fill:none;stroke:#ffffff;stroke-linecap:round;stroke-width:1.5;"/>
     </g>
    </g>
    <g id="ytick_24">
     <g id="line2d_50">
      <path clip-path="url(#p2a704ff038)" d="M 419.779599 552.448244 
L 711.1917 552.448244 
" style="fill:none;stroke:#ffffff;stroke-linecap:round;stroke-width:1.5;"/>
     </g>
    </g>
    <g id="ytick_25">
     <g id="line2d_51">
      <path clip-path="url(#p2a704ff038)" d="M 419.779599 508.166048 
L 711.1917 508.166048 
" style="fill:none;stroke:#ffffff;stroke-linecap:round;stroke-width:1.5;"/>
     </g>
    </g>
    <g id="ytick_26">
     <g id="line2d_52">
      <path clip-path="url(#p2a704ff038)" d="M 419.779599 463.883853 
L 711.1917 463.883853 
" style="fill:none;stroke:#ffffff;stroke-linecap:round;stroke-width:1.5;"/>
     </g>
    </g>
    <g id="ytick_27">
     <g id="line2d_53">
      <path clip-path="url(#p2a704ff038)" d="M 419.779599 419.601657 
L 711.1917 419.601657 
" style="fill:none;stroke:#ffffff;stroke-linecap:round;stroke-width:1.5;"/>
     </g>
    </g>
    <g id="ytick_28">
     <g id="line2d_54">
      <path clip-path="url(#p2a704ff038)" d="M 419.779599 375.319462 
L 711.1917 375.319462 
" style="fill:none;stroke:#ffffff;stroke-linecap:round;stroke-width:1.5;"/>
     </g>
    </g>
   </g>
   <g id="PolyCollection_4">
    <defs>
     <path d="M 433.025604 -314.565806 
L 433.025604 -273.82945 
L 436.142311 -257.845989 
L 439.259018 -256.267915 
L 442.375725 -257.233776 
L 445.492431 -244.731006 
L 448.609138 -240.856797 
L 451.725845 -244.475862 
L 454.842552 -235.940484 
L 457.959259 -235.672402 
L 461.075966 -235.063982 
L 464.192673 -227.715965 
L 467.30938 -227.794712 
L 470.426087 -225.736488 
L 473.542794 -220.696482 
L 476.659501 -221.647671 
L 479.776208 -223.761659 
L 482.892915 -216.477611 
L 486.009622 -215.092223 
L 489.126329 -216.03506 
L 492.243036 -209.140271 
L 495.359743 -208.600983 
L 498.47645 -209.387086 
L 501.593157 -206.259107 
L 504.709864 -204.471527 
L 507.826571 -205.139029 
L 510.943278 -202.519046 
L 514.059985 -200.450542 
L 517.176692 -201.778921 
L 520.293399 -200.496222 
L 523.410106 -196.311157 
L 526.526813 -198.022692 
L 529.643519 -197.143305 
L 532.760226 -195.130993 
L 535.876933 -194.481296 
L 538.99364 -194.737713 
L 542.110347 -193.188709 
L 545.227054 -193.104488 
L 548.343761 -192.075661 
L 551.460468 -190.623002 
L 554.577175 -190.948772 
L 557.693882 -189.544913 
L 560.810589 -188.916644 
L 563.927296 -188.910475 
L 567.044003 -187.878849 
L 570.16071 -187.601837 
L 573.277417 -185.711541 
L 576.394124 -185.20152 
L 579.510831 -185.958492 
L 582.627538 -184.941686 
L 585.744245 -182.75941 
L 588.860952 -183.120287 
L 591.977659 -180.56417 
L 595.094366 -181.176665 
L 598.211073 -179.17322 
L 601.32778 -179.003707 
L 604.444487 -178.364184 
L 607.561194 -177.990499 
L 610.6779 -175.884602 
L 613.794607 -176.049153 
L 616.911314 -175.637562 
L 620.028021 -175.796841 
L 623.144728 -174.945009 
L 626.261435 -174.178444 
L 629.378142 -174.514306 
L 632.494849 -173.90414 
L 635.611556 -173.298016 
L 638.728263 -172.390153 
L 641.84497 -172.560244 
L 644.961677 -172.1085 
L 648.078384 -171.662567 
L 651.195091 -171.127927 
L 654.311798 -171.271006 
L 657.428505 -171.108546 
L 660.545212 -170.401125 
L 663.661919 -170.107732 
L 666.778626 -170.31385 
L 669.895333 -169.395732 
L 673.01204 -169.161599 
L 676.128747 -168.956222 
L 679.245454 -168.710056 
L 682.362161 -168.564957 
L 685.478868 -168.283742 
L 688.595575 -167.912875 
L 691.712281 -167.223776 
L 694.828988 -167.549923 
L 697.945695 -167.678584 
L 697.945695 -196.91365 
L 697.945695 -196.91365 
L 694.828988 -198.047114 
L 691.712281 -198.502888 
L 688.595575 -199.048054 
L 685.478868 -199.68521 
L 682.362161 -198.815445 
L 679.245454 -199.919909 
L 676.128747 -200.336365 
L 673.01204 -200.533554 
L 669.895333 -200.628719 
L 666.778626 -200.997201 
L 663.661919 -201.044708 
L 660.545212 -201.160321 
L 657.428505 -202.054305 
L 654.311798 -202.32098 
L 651.195091 -201.567949 
L 648.078384 -202.604119 
L 644.961677 -202.932722 
L 641.84497 -203.088046 
L 638.728263 -203.239619 
L 635.611556 -203.61755 
L 632.494849 -204.038774 
L 629.378142 -204.146784 
L 626.261435 -204.340942 
L 623.144728 -205.183029 
L 620.028021 -205.568683 
L 616.911314 -205.368874 
L 613.794607 -205.971748 
L 610.6779 -207.385057 
L 607.561194 -207.192956 
L 604.444487 -207.957726 
L 601.32778 -210.463044 
L 598.211073 -209.609975 
L 595.094366 -209.684572 
L 591.977659 -211.520061 
L 588.860952 -211.436501 
L 585.744245 -211.746654 
L 582.627538 -211.552247 
L 579.510831 -212.614289 
L 576.394124 -212.94132 
L 573.277417 -214.306449 
L 570.16071 -215.114952 
L 567.044003 -216.360442 
L 563.927296 -216.091275 
L 560.810589 -217.050458 
L 557.693882 -218.015543 
L 554.577175 -218.967497 
L 551.460468 -220.394686 
L 548.343761 -220.19481 
L 545.227054 -221.967838 
L 542.110347 -223.298233 
L 538.99364 -224.139661 
L 535.876933 -226.199572 
L 532.760226 -226.493488 
L 529.643519 -226.725881 
L 526.526813 -228.596821 
L 523.410106 -230.983055 
L 520.293399 -230.954881 
L 517.176692 -233.857252 
L 514.059985 -233.201788 
L 510.943278 -233.38282 
L 507.826571 -237.414023 
L 504.709864 -237.654 
L 501.593157 -236.749649 
L 498.47645 -240.222132 
L 495.359743 -241.454278 
L 492.243036 -240.999528 
L 489.126329 -246.245308 
L 486.009622 -247.451422 
L 482.892915 -248.71572 
L 479.776208 -251.394361 
L 476.659501 -253.121886 
L 473.542794 -253.684197 
L 470.426087 -257.937816 
L 467.30938 -260.295735 
L 464.192673 -260.040352 
L 461.075966 -263.787038 
L 457.959259 -266.918451 
L 454.842552 -267.611695 
L 451.725845 -277.89303 
L 448.609138 -279.932428 
L 445.492431 -277.744163 
L 442.375725 -295.945057 
L 439.259018 -298.027634 
L 436.142311 -291.911843 
L 433.025604 -314.565806 
z
" id="mf41b8b1ac8" style="stroke:#4c72b0;stroke-opacity:0.2;stroke-width:1.5;"/>
    </defs>
    <g clip-path="url(#p2a704ff038)">
     <use style="fill:#4c72b0;fill-opacity:0.2;stroke:#4c72b0;stroke-opacity:0.2;stroke-width:1.5;" x="0" xlink:href="#mf41b8b1ac8" y="720"/>
    </g>
   </g>
   <g id="line2d_55">
    <path clip-path="url(#p2a704ff038)" d="M 433.025604 425.802372 
L 436.142311 445.121084 
L 439.259018 442.852225 
L 442.375725 443.410583 
L 445.492431 458.762416 
L 448.609138 459.605388 
L 451.725845 458.815554 
L 454.842552 468.223911 
L 457.959259 468.704574 
L 461.075966 470.57449 
L 464.192673 476.121841 
L 467.30938 475.954777 
L 470.426087 478.162848 
L 473.542794 482.809661 
L 476.659501 482.615222 
L 479.776208 482.42199 
L 482.892915 487.403335 
L 486.009622 488.728177 
L 489.126329 488.859816 
L 492.243036 494.9301 
L 495.359743 494.972369 
L 498.47645 495.195391 
L 501.593157 498.495622 
L 504.709864 498.937236 
L 507.826571 498.723474 
L 510.943278 502.049067 
L 514.059985 503.173835 
L 517.176692 502.181914 
L 520.293399 504.274449 
L 523.410106 506.352894 
L 526.526813 506.690244 
L 529.643519 508.065407 
L 532.760226 509.187759 
L 535.876933 509.659566 
L 538.99364 510.561313 
L 542.110347 511.756529 
L 545.227054 512.463837 
L 548.343761 513.864764 
L 551.460468 514.491156 
L 554.577175 515.041866 
L 557.693882 516.219772 
L 560.810589 517.016449 
L 563.927296 517.499125 
L 567.044003 517.880354 
L 570.16071 518.641606 
L 573.277417 519.991005 
L 576.394124 520.92858 
L 579.510831 520.71361 
L 582.627538 521.753034 
L 585.744245 522.746968 
L 588.860952 522.721606 
L 591.977659 523.957884 
L 595.094366 524.569381 
L 598.211073 525.608403 
L 601.32778 525.266625 
L 604.444487 526.839045 
L 607.561194 527.408273 
L 610.6779 528.365171 
L 613.794607 528.98955 
L 616.911314 529.496782 
L 620.028021 529.317238 
L 623.144728 529.935981 
L 626.261435 530.740307 
L 629.378142 530.669455 
L 632.494849 531.028543 
L 635.611556 531.542217 
L 638.728263 532.185114 
L 641.84497 532.175855 
L 644.961677 532.479389 
L 648.078384 532.866657 
L 651.195091 533.652062 
L 654.311798 533.204007 
L 657.428505 533.418574 
L 660.545212 534.219277 
L 663.661919 534.42378 
L 666.778626 534.344475 
L 669.895333 534.987774 
L 673.01204 535.152424 
L 676.128747 535.353706 
L 679.245454 535.685018 
L 682.362161 536.309799 
L 685.478868 536.015524 
L 688.595575 536.519536 
L 691.712281 537.136668 
L 694.828988 537.201482 
L 697.945695 537.703883 
" style="fill:none;stroke:#4c72b0;stroke-linecap:round;stroke-width:2.25;"/>
   </g>
   <g id="line2d_56">
    <path clip-path="url(#p2a704ff038)" d="M 419.779599 635.335658 
L 711.1917 635.335658 
" style="fill:none;stroke:#008000;stroke-dasharray:8.325,3.6;stroke-dashoffset:0;stroke-width:2.25;"/>
   </g>
   <g id="patch_12">
    <path d="M 419.779599 658.896 
L 419.779599 363.492 
" style="fill:none;stroke:#ffffff;stroke-linecap:square;stroke-linejoin:miter;stroke-width:1.875;"/>
   </g>
   <g id="patch_13">
    <path d="M 419.779599 658.896 
L 711.1917 658.896 
" style="fill:none;stroke:#ffffff;stroke-linecap:square;stroke-linejoin:miter;stroke-width:1.875;"/>
   </g>
   <g id="text_32">
    <!-- MH = SA -->
    <g style="fill:#262626;" transform="translate(531.768275 357.492)scale(0.153 -0.153)">
     <use xlink:href="#DejaVuSans-77"/>
     <use x="86.279297" xlink:href="#DejaVuSans-72"/>
     <use x="161.474609" xlink:href="#DejaVuSans-32"/>
     <use x="193.261719" xlink:href="#DejaVuSans-61"/>
     <use x="277.050781" xlink:href="#DejaVuSans-32"/>
     <use x="308.837891" xlink:href="#DejaVuSans-83"/>
     <use x="372.330078" xlink:href="#DejaVuSans-65"/>
    </g>
   </g>
  </g>
  <g id="legend_1">
   <g id="line2d_57">
    <path d="M 718.909184 348.668238 
L 746.959184 348.668238 
" style="fill:none;stroke:#4c72b0;stroke-linecap:round;stroke-width:2.25;"/>
   </g>
   <g id="line2d_58"/>
   <g id="text_33">
    <!-- Solving process -->
    <defs>
     <path d="M 9.421875 75.984375 
L 18.40625 75.984375 
L 18.40625 0 
L 9.421875 0 
z
" id="DejaVuSans-108"/>
     <path d="M 45.40625 27.984375 
Q 45.40625 37.75 41.375 43.109375 
Q 37.359375 48.484375 30.078125 48.484375 
Q 22.859375 48.484375 18.828125 43.109375 
Q 14.796875 37.75 14.796875 27.984375 
Q 14.796875 18.265625 18.828125 12.890625 
Q 22.859375 7.515625 30.078125 7.515625 
Q 37.359375 7.515625 41.375 12.890625 
Q 45.40625 18.265625 45.40625 27.984375 
z
M 54.390625 6.78125 
Q 54.390625 -7.171875 48.1875 -13.984375 
Q 42 -20.796875 29.203125 -20.796875 
Q 24.46875 -20.796875 20.265625 -20.09375 
Q 16.0625 -19.390625 12.109375 -17.921875 
L 12.109375 -9.1875 
Q 16.0625 -11.328125 19.921875 -12.34375 
Q 23.78125 -13.375 27.78125 -13.375 
Q 36.625 -13.375 41.015625 -8.765625 
Q 45.40625 -4.15625 45.40625 5.171875 
L 45.40625 9.625 
Q 42.625 4.78125 38.28125 2.390625 
Q 33.9375 0 27.875 0 
Q 17.828125 0 11.671875 7.65625 
Q 5.515625 15.328125 5.515625 27.984375 
Q 5.515625 40.671875 11.671875 48.328125 
Q 17.828125 56 27.875 56 
Q 33.9375 56 38.28125 53.609375 
Q 42.625 51.21875 45.40625 46.390625 
L 45.40625 54.6875 
L 54.390625 54.6875 
z
" id="DejaVuSans-103"/>
     <path d="M 18.109375 8.203125 
L 18.109375 -20.796875 
L 9.078125 -20.796875 
L 9.078125 54.6875 
L 18.109375 54.6875 
L 18.109375 46.390625 
Q 20.953125 51.265625 25.265625 53.625 
Q 29.59375 56 35.59375 56 
Q 45.5625 56 51.78125 48.09375 
Q 58.015625 40.1875 58.015625 27.296875 
Q 58.015625 14.40625 51.78125 6.484375 
Q 45.5625 -1.421875 35.59375 -1.421875 
Q 29.59375 -1.421875 25.265625 0.953125 
Q 20.953125 3.328125 18.109375 8.203125 
z
M 48.6875 27.296875 
Q 48.6875 37.203125 44.609375 42.84375 
Q 40.53125 48.484375 33.40625 48.484375 
Q 26.265625 48.484375 22.1875 42.84375 
Q 18.109375 37.203125 18.109375 27.296875 
Q 18.109375 17.390625 22.1875 11.75 
Q 26.265625 6.109375 33.40625 6.109375 
Q 40.53125 6.109375 44.609375 11.75 
Q 48.6875 17.390625 48.6875 27.296875 
z
" id="DejaVuSans-112"/>
    </defs>
    <g style="fill:#262626;" transform="translate(758.179184 353.576988)scale(0.14025 -0.14025)">
     <use xlink:href="#DejaVuSans-83"/>
     <use x="63.476562" xlink:href="#DejaVuSans-111"/>
     <use x="124.658203" xlink:href="#DejaVuSans-108"/>
     <use x="152.441406" xlink:href="#DejaVuSans-118"/>
     <use x="211.621094" xlink:href="#DejaVuSans-105"/>
     <use x="239.404297" xlink:href="#DejaVuSans-110"/>
     <use x="302.783203" xlink:href="#DejaVuSans-103"/>
     <use x="366.259766" xlink:href="#DejaVuSans-32"/>
     <use x="398.046875" xlink:href="#DejaVuSans-112"/>
     <use x="461.523438" xlink:href="#DejaVuSans-114"/>
     <use x="502.605469" xlink:href="#DejaVuSans-111"/>
     <use x="563.787109" xlink:href="#DejaVuSans-99"/>
     <use x="618.767578" xlink:href="#DejaVuSans-101"/>
     <use x="680.291016" xlink:href="#DejaVuSans-115"/>
     <use x="732.390625" xlink:href="#DejaVuSans-115"/>
    </g>
   </g>
   <g id="line2d_59">
    <path d="M 718.909184 369.254309 
L 746.959184 369.254309 
" style="fill:none;stroke:#008000;stroke-dasharray:8.325,3.6;stroke-dashoffset:0;stroke-width:2.25;"/>
   </g>
   <g id="line2d_60"/>
   <g id="text_34">
    <!-- Optimum -->
    <defs>
     <path d="M 39.40625 66.21875 
Q 28.65625 66.21875 22.328125 58.203125 
Q 16.015625 50.203125 16.015625 36.375 
Q 16.015625 22.609375 22.328125 14.59375 
Q 28.65625 6.59375 39.40625 6.59375 
Q 50.140625 6.59375 56.421875 14.59375 
Q 62.703125 22.609375 62.703125 36.375 
Q 62.703125 50.203125 56.421875 58.203125 
Q 50.140625 66.21875 39.40625 66.21875 
z
M 39.40625 74.21875 
Q 54.734375 74.21875 63.90625 63.9375 
Q 73.09375 53.65625 73.09375 36.375 
Q 73.09375 19.140625 63.90625 8.859375 
Q 54.734375 -1.421875 39.40625 -1.421875 
Q 24.03125 -1.421875 14.8125 8.828125 
Q 5.609375 19.09375 5.609375 36.375 
Q 5.609375 53.65625 14.8125 63.9375 
Q 24.03125 74.21875 39.40625 74.21875 
z
" id="DejaVuSans-79"/>
     <path d="M 8.5 21.578125 
L 8.5 54.6875 
L 17.484375 54.6875 
L 17.484375 21.921875 
Q 17.484375 14.15625 20.5 10.265625 
Q 23.53125 6.390625 29.59375 6.390625 
Q 36.859375 6.390625 41.078125 11.03125 
Q 45.3125 15.671875 45.3125 23.6875 
L 45.3125 54.6875 
L 54.296875 54.6875 
L 54.296875 0 
L 45.3125 0 
L 45.3125 8.40625 
Q 42.046875 3.421875 37.71875 1 
Q 33.40625 -1.421875 27.6875 -1.421875 
Q 18.265625 -1.421875 13.375 4.4375 
Q 8.5 10.296875 8.5 21.578125 
z
M 31.109375 56 
z
" id="DejaVuSans-117"/>
    </defs>
    <g style="fill:#262626;" transform="translate(758.179184 374.163059)scale(0.14025 -0.14025)">
     <use xlink:href="#DejaVuSans-79"/>
     <use x="78.710938" xlink:href="#DejaVuSans-112"/>
     <use x="142.1875" xlink:href="#DejaVuSans-116"/>
     <use x="181.396484" xlink:href="#DejaVuSans-105"/>
     <use x="209.179688" xlink:href="#DejaVuSans-109"/>
     <use x="306.591797" xlink:href="#DejaVuSans-117"/>
     <use x="369.970703" xlink:href="#DejaVuSans-109"/>
    </g>
   </g>
  </g>
 </g>
 <defs>
  <clipPath id="paa1283865d">
   <rect height="295.404" width="291.412101" x="112.188381" y="34.044"/>
  </clipPath>
  <clipPath id="p9f481aac87">
   <rect height="295.404" width="291.412101" x="419.779599" y="34.044"/>
  </clipPath>
  <clipPath id="p60cc9cdb3f">
   <rect height="295.404" width="291.412101" x="112.188381" y="363.492"/>
  </clipPath>
  <clipPath id="p2a704ff038">
   <rect height="295.404" width="291.412101" x="419.779599" y="363.492"/>
  </clipPath>
 </defs>
</svg>
